<svg width="554" height="120" viewBox="0 0 554 120" fill="none" xmlns="http://www.w3.org/2000/svg">
<path d="M550.877 81.09C553.136 80.0535 554.126 77.3821 553.09 75.1233C552.053 72.8644 549.382 71.8735 547.123 72.91L550.877 81.09ZM0.5 0L21.6709 47.453L52.181 5.39194L0.5 0ZM20.1847 19.3548C25.2741 22.7741 30.37 26.0893 35.4705 29.3027L40.268 21.688C35.242 18.5215 30.22 15.2544 25.2038 11.8843L20.1847 19.3548ZM51.0434 38.7933C56.3153 41.899 61.5899 44.899 66.865 47.796L71.1973 39.9073C66.0013 37.0538 60.8054 34.0986 55.6116 31.0388L51.0434 38.7933ZM82.9308 56.3037C88.3893 59.0884 93.846 61.7657 99.2983 64.3385L103.139 56.1992C97.7701 53.6657 92.3966 51.0292 87.0208 48.2867L82.9308 56.3037ZM115.915 71.8664C121.532 74.3062 127.141 76.638 132.741 78.865L136.067 70.5021C130.554 68.3096 125.031 66.0138 119.501 63.6115L115.915 71.8664ZM149.764 85.3283C155.515 87.409 161.252 89.3819 166.973 91.2507L169.768 82.6955C164.136 80.8559 158.488 78.9137 152.826 76.8653L149.764 85.3283ZM184.372 96.6323C190.257 98.3516 196.121 99.9632 201.961 101.471L204.211 92.757C198.462 91.2724 192.689 89.6859 186.895 87.9934L184.372 96.6323ZM219.685 105.751C225.663 107.095 231.612 108.334 237.529 109.47L239.227 100.632C233.402 99.5129 227.545 98.2938 221.66 96.9704L219.685 105.751ZM255.475 112.627C261.526 113.595 267.539 114.458 273.508 115.222L274.651 106.295C268.773 105.542 262.853 104.692 256.896 103.74L255.475 112.627ZM291.612 117.254C297.717 117.843 303.771 118.331 309.77 118.723L310.357 109.743C304.449 109.356 298.488 108.876 292.477 108.296L291.612 117.254ZM327.965 119.631C334.104 119.842 340.178 119.955 346.182 119.976L346.214 110.976C340.301 110.955 334.319 110.844 328.275 110.636L327.965 119.631ZM364.403 119.759C370.557 119.591 376.628 119.328 382.611 118.979L382.087 109.994C376.195 110.338 370.217 110.597 364.157 110.763L364.403 119.759ZM400.789 117.632C406.938 117.08 412.982 116.438 418.914 115.716L417.825 106.782C411.987 107.493 406.038 108.125 399.983 108.668L400.789 117.632ZM436.961 113.223C443.082 112.277 449.065 111.247 454.901 110.145L453.231 101.302C447.493 102.385 441.608 103.397 435.586 104.329L436.961 113.223ZM472.765 106.455C478.882 105.08 484.808 103.63 490.531 102.119L488.235 93.4172C482.619 94.899 476.8 96.3229 470.791 97.6741L472.765 106.455ZM508.053 97.1268C514.143 95.2574 519.949 93.3282 525.453 91.3615L522.425 82.8863C517.053 84.8058 511.376 86.6924 505.412 88.5231L508.053 97.1268ZM542.487 84.7696C545.401 83.5468 548.199 82.3187 550.877 81.09L547.123 72.91C544.539 74.0958 541.832 75.2844 539.005 76.4706L542.487 84.7696Z" fill="#333649"/>
</svg>
