<svg width="507" height="315" viewBox="0 0 507 315" fill="none" xmlns="http://www.w3.org/2000/svg">
<path d="M503.718 314.225C505.375 314.196 506.694 312.829 506.665 311.173C506.636 309.516 505.27 308.197 503.613 308.226L503.718 314.225ZM0.808594 0L0.918754 34.6408L30.8635 17.225L0.808594 0ZM12.2901 24.9761C15.5635 30.1904 18.8823 35.3167 22.244 40.3565L27.2354 37.027C23.9044 32.0333 20.6157 26.9534 17.3718 21.786L12.2901 24.9761ZM32.5898 55.4066C36.1271 60.4006 39.7069 65.3048 43.3266 70.1205L48.1228 66.5154C44.537 61.7449 40.9906 56.8864 37.4861 51.9386L32.5898 55.4066ZM54.5162 84.5711C58.3465 89.3735 62.2168 94.0825 66.1239 98.6997L70.7041 94.824C66.8344 90.2509 63.001 85.5867 59.2069 80.8298L54.5162 84.5711ZM78.114 112.457C82.2023 117.012 86.3263 121.472 90.4827 125.838L94.8284 121.7C90.7122 117.377 86.628 112.96 82.5791 108.449L78.114 112.457ZM103.288 138.896C107.652 143.216 112.047 147.439 116.47 151.564L120.563 147.177C116.183 143.091 111.831 138.91 107.509 134.632L103.288 138.896ZM130.006 163.82C134.609 167.865 139.237 171.81 143.887 175.658L147.712 171.035C143.108 167.225 138.525 163.319 133.966 159.313L130.006 163.82ZM158.108 187.072C162.957 190.848 167.825 194.521 172.708 198.094L176.251 193.252C171.416 189.714 166.596 186.076 161.794 182.338L158.108 187.072ZM187.617 208.668C192.677 212.145 197.747 215.519 202.824 218.79L206.074 213.747C201.047 210.507 196.026 207.166 191.015 203.723L187.617 208.668ZM218.316 228.455C223.571 231.627 228.828 234.694 234.08 237.657L237.029 232.431C231.827 229.496 226.621 226.46 221.416 223.318L218.316 228.455ZM250.105 246.391C255.54 249.252 260.966 252.005 266.375 254.653L269.013 249.264C263.656 246.641 258.282 243.915 252.899 241.082L250.105 246.391ZM282.88 262.436C288.488 264.982 294.072 267.417 299.625 269.744L301.945 264.211C296.445 261.905 290.914 259.494 285.36 256.973L282.88 262.436ZM316.573 276.559C322.329 278.776 328.044 280.879 333.71 282.872L335.701 277.212C330.09 275.238 324.43 273.155 318.73 270.96L316.573 276.559ZM351.019 288.675C356.914 290.554 362.745 292.314 368.503 293.961L370.153 288.192C364.452 286.562 358.679 284.819 352.842 282.958L351.019 288.675ZM386.165 298.719C392.2 300.244 398.14 301.644 403.972 302.923L405.257 297.062C399.487 295.797 393.609 294.412 387.636 292.902L386.165 298.719ZM421.901 306.546C428.055 307.682 434.065 308.681 439.916 309.549L440.797 303.614C435.016 302.756 429.076 301.769 422.991 300.645L421.901 306.546ZM458.019 311.889C464.359 312.583 470.466 313.115 476.318 313.499L476.711 307.512C470.948 307.134 464.927 306.609 458.672 305.924L458.019 311.889ZM494.584 314.239C497.73 314.282 500.776 314.276 503.718 314.225L503.613 308.226C500.736 308.276 497.752 308.281 494.666 308.239L494.584 314.239Z" fill="#333649"/>
</svg>
