<svg width="290" height="161" viewBox="0 0 290 161" fill="none" xmlns="http://www.w3.org/2000/svg">
<path d="M288.267 141.971C289.251 141.47 289.643 140.265 289.142 139.281C288.641 138.297 287.437 137.905 286.453 138.405L288.267 141.971ZM2.01562 0.383301L0.363236 23.4181L21.1382 13.3317L2.01562 0.383301ZM12.4732 25.2546C15.4243 30.6111 18.4242 35.7728 21.4685 40.7457L24.88 38.6572C21.8683 33.7376 18.899 28.6287 15.9767 23.3244L12.4732 25.2546ZM31.2004 55.7929C34.6577 60.8503 38.1635 65.6851 41.7119 70.3054L44.8843 67.869C41.3817 63.3085 37.9191 58.5334 34.5026 53.5355L31.2004 55.7929ZM53.0384 84.1755C57.0704 88.8139 61.1474 93.198 65.2612 97.3386L68.0988 94.5194C64.0487 90.4429 60.0321 86.1239 56.0573 81.5513L53.0384 84.1755ZM78.3961 109.645C83.0266 113.673 87.6916 117.417 92.38 120.892L94.7615 117.678C90.1579 114.266 85.5743 110.588 81.0216 106.627L78.3961 109.645ZM107.283 131.003C112.505 134.231 117.741 137.149 122.975 139.775L124.769 136.2C119.64 133.627 114.508 130.767 109.386 127.601L107.283 131.003ZM139.441 147.111C145.153 149.343 150.843 151.251 156.492 152.863L157.59 149.017C152.06 147.439 146.49 145.571 140.897 143.385L139.441 147.111ZM174.02 156.969C180.057 158.081 186.021 158.874 191.884 159.382L192.23 155.397C186.49 154.899 180.654 154.123 174.745 153.035L174.02 156.969ZM209.888 160.083C216.044 160.031 222.05 159.682 227.872 159.081L227.461 155.102C221.761 155.69 215.881 156.032 209.854 156.083L209.888 160.083ZM245.676 156.387C251.796 155.16 257.635 153.672 263.147 151.987L261.977 148.162C256.591 149.808 250.879 151.264 244.89 152.465L245.676 156.387ZM280.116 145.787C282.974 144.556 285.695 143.279 288.267 141.971L286.453 138.405C283.959 139.674 281.316 140.915 278.533 142.114L280.116 145.787Z" fill="#333649"/>
</svg>
