<svg width="123" height="30" viewBox="0 0 123 30" fill="none" xmlns="http://www.w3.org/2000/svg">
<path d="M30 15C30 18.9782 28.4196 22.7936 25.6066 25.6066C22.7936 28.4196 18.9782 30 15 30C11.0218 30 7.20645 28.4196 4.3934 25.6066C1.58035 22.7936 6.00699e-07 18.9782 0 15L6 15C6 17.3869 6.94821 19.6761 8.63604 21.364C10.3239 23.0518 12.6131 24 15 24C17.3869 24 19.6761 23.0518 21.364 21.364C23.0518 19.6761 24 17.3869 24 15H30Z" fill="#455A64"/>
<circle cx="14.9984" cy="11.4" r="3.6" fill="#455A64"/>
<path d="M39.136 23V11.8H42.768C44.08 11.8 45.1573 12.0293 46 12.488C46.8533 12.9467 47.4827 13.5973 47.888 14.44C48.304 15.272 48.512 16.264 48.512 17.416C48.512 18.5573 48.304 19.5493 47.888 20.392C47.4827 21.224 46.8533 21.8693 46 22.328C45.1573 22.776 44.08 23 42.768 23H39.136ZM40.832 21.56H42.704C43.7173 21.56 44.5173 21.3947 45.104 21.064C45.7013 20.7333 46.128 20.2587 46.384 19.64C46.6507 19.0213 46.784 18.28 46.784 17.416C46.784 16.552 46.6507 15.8053 46.384 15.176C46.128 14.5467 45.7013 14.0667 45.104 13.736C44.5173 13.3947 43.7173 13.224 42.704 13.224H40.832V21.56ZM54.674 23.192C53.8953 23.192 53.202 23.0213 52.594 22.68C51.9967 22.328 51.5273 21.8427 51.186 21.224C50.8447 20.6053 50.674 19.8853 50.674 19.064C50.674 18.232 50.8393 17.5013 51.17 16.872C51.5113 16.2427 51.9807 15.752 52.578 15.4C53.186 15.048 53.89 14.872 54.69 14.872C55.4687 14.872 56.146 15.048 56.722 15.4C57.298 15.7413 57.746 16.2 58.066 16.776C58.386 17.352 58.546 17.9867 58.546 18.68C58.546 18.7867 58.5407 18.904 58.53 19.032C58.53 19.1493 58.5247 19.2827 58.514 19.432H52.338C52.3913 20.2 52.642 20.7867 53.09 21.192C53.5487 21.5867 54.0767 21.784 54.674 21.784C55.154 21.784 55.554 21.6773 55.874 21.464C56.2047 21.24 56.45 20.9413 56.61 20.568H58.306C58.0927 21.3147 57.666 21.9387 57.026 22.44C56.3967 22.9413 55.6127 23.192 54.674 23.192ZM54.674 16.264C54.1087 16.264 53.6073 16.4347 53.17 16.776C52.7327 17.1067 52.466 17.608 52.37 18.28H56.85C56.818 17.6613 56.5993 17.1707 56.194 16.808C55.7887 16.4453 55.282 16.264 54.674 16.264ZM64.1138 23.192C63.1111 23.192 62.2844 22.9467 61.6338 22.456C60.9831 21.9653 60.6098 21.3147 60.5138 20.504H62.2258C62.3111 20.8667 62.5138 21.1813 62.8338 21.448C63.1538 21.704 63.5751 21.832 64.0978 21.832C64.6098 21.832 64.9831 21.7253 65.2178 21.512C65.4524 21.2987 65.5698 21.0533 65.5698 20.776C65.5698 20.3707 65.4044 20.0987 65.0738 19.96C64.7538 19.8107 64.3058 19.6773 63.7298 19.56C63.2818 19.464 62.8338 19.336 62.3858 19.176C61.9484 19.016 61.5804 18.792 61.2818 18.504C60.9938 18.2053 60.8498 17.8053 60.8498 17.304C60.8498 16.6107 61.1164 16.0347 61.6498 15.576C62.1831 15.1067 62.9298 14.872 63.8898 14.872C64.7751 14.872 65.4898 15.0853 66.0338 15.512C66.5884 15.9387 66.9138 16.5413 67.0098 17.32H65.3778C65.3244 16.9787 65.1644 16.712 64.8978 16.52C64.6418 16.328 64.2951 16.232 63.8578 16.232C63.4311 16.232 63.1004 16.3227 62.8658 16.504C62.6311 16.6747 62.5138 16.8987 62.5138 17.176C62.5138 17.4533 62.6738 17.672 62.9938 17.832C63.3244 17.992 63.7564 18.136 64.2898 18.264C64.8231 18.3813 65.3138 18.52 65.7618 18.68C66.2204 18.8293 66.5884 19.0533 66.8658 19.352C67.1431 19.6507 67.2818 20.088 67.2818 20.664C67.2924 21.3893 67.0098 21.992 66.4338 22.472C65.8684 22.952 65.0951 23.192 64.1138 23.192ZM70.7333 13.56C70.4133 13.56 70.1466 13.464 69.9333 13.272C69.7306 13.0693 69.6293 12.8187 69.6293 12.52C69.6293 12.2213 69.7306 11.976 69.9333 11.784C70.1466 11.5813 70.4133 11.48 70.7333 11.48C71.0533 11.48 71.3146 11.5813 71.5173 11.784C71.7306 11.976 71.8373 12.2213 71.8373 12.52C71.8373 12.8187 71.7306 13.0693 71.5173 13.272C71.3146 13.464 71.0533 13.56 70.7333 13.56ZM69.8853 23V15.064H71.5813V23H69.8853ZM77.7081 20.568C77.2921 20.568 76.9081 20.52 76.5561 20.424L75.8681 21.096C75.9855 21.1707 76.1295 21.2347 76.3001 21.288C76.4708 21.3413 76.7108 21.3893 77.0201 21.432C77.3295 21.4747 77.7508 21.5173 78.2841 21.56C79.3401 21.656 80.1028 21.912 80.5721 22.328C81.0415 22.7333 81.2761 23.2773 81.2761 23.96C81.2761 24.4293 81.1481 24.872 80.8921 25.288C80.6468 25.7147 80.2575 26.056 79.7241 26.312C79.2015 26.5787 78.5295 26.712 77.7081 26.712C76.5988 26.712 75.6975 26.4987 75.0041 26.072C74.3215 25.656 73.9801 25.0213 73.9801 24.168C73.9801 23.8373 74.0655 23.5067 74.2361 23.176C74.4175 22.856 74.7001 22.552 75.0841 22.264C74.8601 22.168 74.6628 22.0667 74.4921 21.96C74.3321 21.8427 74.1881 21.7253 74.0601 21.608V21.224L75.4361 19.816C74.8175 19.2827 74.5081 18.584 74.5081 17.72C74.5081 17.1973 74.6308 16.7227 74.8761 16.296C75.1321 15.8587 75.5001 15.512 75.9801 15.256C76.4601 15 77.0361 14.872 77.7081 14.872C78.1561 14.872 78.5721 14.936 78.9561 15.064H81.9161V16.184L80.5081 16.264C80.7641 16.7013 80.8921 17.1867 80.8921 17.72C80.8921 18.2533 80.7641 18.7333 80.5081 19.16C80.2628 19.5867 79.9001 19.928 79.4201 20.184C78.9508 20.44 78.3801 20.568 77.7081 20.568ZM77.7081 19.24C78.1988 19.24 78.5935 19.112 78.8921 18.856C79.2015 18.5893 79.3561 18.216 79.3561 17.736C79.3561 17.2453 79.2015 16.872 78.8921 16.616C78.5935 16.36 78.1988 16.232 77.7081 16.232C77.2068 16.232 76.8015 16.36 76.4921 16.616C76.1935 16.872 76.0441 17.2453 76.0441 17.736C76.0441 18.216 76.1935 18.5893 76.4921 18.856C76.8015 19.112 77.2068 19.24 77.7081 19.24ZM75.5801 24.008C75.5801 24.4667 75.7828 24.808 76.1881 25.032C76.5935 25.2667 77.1001 25.384 77.7081 25.384C78.2948 25.384 78.7695 25.256 79.1321 25C79.4948 24.7547 79.6761 24.424 79.6761 24.008C79.6761 23.6987 79.5535 23.432 79.3081 23.208C79.0628 22.9947 78.5988 22.8613 77.9161 22.808C77.4041 22.776 76.9508 22.728 76.5561 22.664C76.1828 22.8667 75.9268 23.0853 75.7881 23.32C75.6495 23.5547 75.5801 23.784 75.5801 24.008ZM84.0689 23V15.064H85.5729L85.7009 16.456C85.9462 15.9653 86.3035 15.5813 86.7729 15.304C87.2529 15.016 87.8022 14.872 88.4209 14.872C89.3809 14.872 90.1329 15.1707 90.6769 15.768C91.2315 16.3653 91.5089 17.256 91.5089 18.44V23H89.8289V18.616C89.8289 17.08 89.1995 16.312 87.9409 16.312C87.3115 16.312 86.7889 16.536 86.3729 16.984C85.9675 17.432 85.7649 18.072 85.7649 18.904V23H84.0689ZM98.8176 23V11.48H100.514V23H98.8176ZM105.989 23.192C105.317 23.192 104.763 23.08 104.325 22.856C103.888 22.632 103.563 22.3387 103.349 21.976C103.136 21.6027 103.029 21.1973 103.029 20.76C103.029 19.992 103.328 19.384 103.925 18.936C104.523 18.488 105.376 18.264 106.485 18.264H108.565V18.12C108.565 17.5013 108.395 17.0373 108.053 16.728C107.723 16.4187 107.291 16.264 106.757 16.264C106.288 16.264 105.877 16.3813 105.525 16.616C105.184 16.84 104.976 17.176 104.901 17.624H103.205C103.259 17.048 103.451 16.5573 103.781 16.152C104.123 15.736 104.549 15.4213 105.061 15.208C105.584 14.984 106.155 14.872 106.773 14.872C107.883 14.872 108.741 15.1653 109.349 15.752C109.957 16.328 110.261 17.1173 110.261 18.12V23H108.789L108.645 21.64C108.421 22.0773 108.096 22.4453 107.669 22.744C107.243 23.0427 106.683 23.192 105.989 23.192ZM106.325 21.816C106.784 21.816 107.168 21.7093 107.477 21.496C107.797 21.272 108.043 20.9787 108.213 20.616C108.395 20.2533 108.507 19.8533 108.549 19.416H106.661C105.989 19.416 105.509 19.5333 105.221 19.768C104.944 20.0027 104.805 20.296 104.805 20.648C104.805 21.0107 104.939 21.2987 105.205 21.512C105.483 21.7147 105.856 21.816 106.325 21.816ZM117.343 23.192C116.724 23.192 116.175 23.0693 115.695 22.824C115.226 22.5787 114.852 22.232 114.575 21.784L114.399 23H112.879V11.48H114.575V16.296C114.831 15.9227 115.183 15.592 115.631 15.304C116.079 15.016 116.655 14.872 117.359 14.872C118.127 14.872 118.804 15.0533 119.391 15.416C119.978 15.7787 120.436 16.2747 120.767 16.904C121.108 17.5333 121.279 18.248 121.279 19.048C121.279 19.848 121.108 20.5627 120.767 21.192C120.436 21.8107 119.978 22.3013 119.391 22.664C118.804 23.016 118.122 23.192 117.343 23.192ZM117.055 21.72C117.78 21.72 118.378 21.4747 118.847 20.984C119.316 20.4827 119.551 19.832 119.551 19.032C119.551 18.5093 119.444 18.0453 119.231 17.64C119.018 17.2347 118.724 16.92 118.351 16.696C117.978 16.4613 117.546 16.344 117.055 16.344C116.33 16.344 115.732 16.5947 115.263 17.096C114.804 17.5973 114.575 18.2427 114.575 19.032C114.575 19.832 114.804 20.4827 115.263 20.984C115.732 21.4747 116.33 21.72 117.055 21.72Z" fill="#455A64"/>
</svg>
