<svg width="547" height="515" viewBox="0 0 547 515" fill="none" xmlns="http://www.w3.org/2000/svg">
<path d="M346.366 80.1172C350.284 80.2269 354.012 81.8324 356.784 84.6041C359.555 87.3757 361.161 91.1032 361.27 95.0214C361.355 98.3487 360.344 101.612 358.393 104.308L358.255 104.514L347.432 119.224C347.217 119.53 346.929 119.778 346.595 119.947C346.261 120.117 345.891 120.202 345.517 120.195C345.142 120.188 344.775 120.09 344.448 119.909C344.12 119.727 343.842 119.468 343.638 119.155L333.858 104.617C331.913 101.917 330.826 98.6926 330.74 95.3653C330.744 93.332 331.154 91.32 331.945 89.447C332.736 87.5741 333.894 85.8779 335.349 84.4578C336.804 83.0378 338.528 81.9224 340.42 81.1771C342.312 80.4317 344.333 80.0714 346.366 80.1172ZM346.011 104.434C347.732 104.434 349.414 103.924 350.845 102.967C352.276 102.011 353.392 100.652 354.05 99.0622C354.709 97.4722 354.881 95.7226 354.545 94.0346C354.21 92.3466 353.381 90.7961 352.164 89.5791C350.947 88.3622 349.396 87.5334 347.708 87.1976C346.02 86.8619 344.271 87.0342 342.681 87.6928C341.091 88.3514 339.732 89.4668 338.776 90.8978C337.819 92.3288 337.309 94.0112 337.309 95.7322C337.308 96.8754 337.532 98.0076 337.968 99.064C338.405 100.12 339.046 101.08 339.854 101.889C340.663 102.697 341.623 103.338 342.679 103.775C343.735 104.211 344.868 104.436 346.011 104.434Z" fill="#E0E0E0"/>
<path d="M114.8 49.1507C113.905 42.696 123.02 37.3878 129.864 36.8375C133.132 36.5738 136.525 37.0668 139.621 35.9891C146.316 33.6961 148.999 24.9943 155.534 22.2313C160.43 20.1677 166.059 22.002 170.794 24.3867C175.529 26.7714 180.218 29.7752 185.515 30.1191C190.1 30.4057 195.122 28.6975 199.146 30.956C202.15 32.6299 203.732 36.0923 206.495 38.133C209.258 40.1737 212.732 40.5521 216.091 40.7355C219.45 40.919 222.97 40.9534 225.997 42.3521C229.023 43.7508 231.58 46.938 230.95 50.2857L114.8 49.1507Z" fill="#EBEBEB"/>
<path d="M315.089 14.8021C314.619 11.3627 319.468 8.54231 323.114 8.24423C324.857 8.10665 326.657 8.37034 328.308 7.7971C331.873 6.54743 333.295 1.95005 336.78 0.47109C339.383 -0.618067 342.375 0.356441 344.897 1.61757C347.42 2.8787 349.919 4.48377 352.739 4.66721C355.181 4.81625 357.853 3.91053 359.997 5.10287C361.59 5.99713 362.427 7.84296 363.906 8.93211C365.438 9.87446 367.21 10.3524 369.008 10.3079C370.805 10.2704 372.593 10.5658 374.282 11.1792C375.117 11.5047 375.825 12.0911 376.3 12.8513C376.775 13.6115 376.992 14.5048 376.919 15.3983L315.089 14.8021Z" fill="#F5F5F5"/>
<path d="M423.111 76.0815C422.411 71.0026 429.577 66.8295 434.954 66.3938C437.522 66.1874 440.193 66.5772 442.624 65.7288C447.886 63.8945 449.996 57.0844 455.132 54.9175C458.973 53.3124 463.398 54.7455 467.124 56.6143C470.85 58.4831 474.542 60.8563 478.704 61.12C482.326 61.3493 486.247 59.9735 489.423 61.7735C491.785 63.0919 493.023 65.8205 495.156 67.4142C497.288 69.0078 500.097 69.3632 502.745 69.4663C505.394 69.5695 508.111 69.6383 510.518 70.7389C512.926 71.8396 514.909 74.3848 514.416 76.9758L423.111 76.0815Z" fill="#F5F5F5"/>
<path d="M17.9331 65.2702C17.9331 65.2702 18.5981 65.0982 19.7789 64.8574C21.4481 64.5246 23.1616 64.478 24.8464 64.7199C27.3367 65.0739 29.6834 66.1005 31.6335 67.6893C34.0118 69.6401 35.69 72.3124 36.4143 75.3019V75.3936L36.701 76.5401L37.1366 75.4739C38.3024 72.6325 40.3008 70.2104 42.869 68.5262C44.9645 67.1528 47.3753 66.336 49.874 66.153C52.2007 66.0299 54.5305 66.325 56.7529 67.0243C56.2158 66.6814 55.6275 66.426 55.0103 66.2676C53.3434 65.7434 51.596 65.5221 49.8511 65.6141C47.2406 65.7287 44.7044 66.5188 42.4907 67.9071C39.7741 69.6404 37.6597 72.1712 36.4373 75.1528H37.1595V75.0611C36.4136 71.8925 34.625 69.0662 32.0807 67.0358C30.0246 65.3915 27.5435 64.3656 24.9266 64.0778C23.1834 63.8687 21.4162 63.9972 19.7216 64.4562C19.083 64.6226 18.478 64.8979 17.9331 65.2702Z" fill="#E0E0E0"/>
<path d="M519.323 163.879L478.279 386.697L392.901 402.175L316.408 352.957L234.595 372.71L149.755 318.275L191.292 106.899L275.765 149.009L348.635 133.188L427.972 175.195L519.323 163.879Z" fill="white"/>
<path d="M392.775 402.783L478.761 387.19L478.83 386.801L520.012 163.237L428.075 174.633L348.705 132.614L275.834 148.47L190.869 106.051L190.731 106.784L149.114 318.551L149.446 318.757L234.492 373.318L234.722 373.261L316.305 353.564L392.775 402.783ZM477.787 386.204L393.016 401.579L316.511 352.337L316.282 352.395L234.699 372.091L150.398 318L191.671 107.747L275.685 149.617H275.88L348.556 133.83L427.869 175.825H428.018L518.59 164.521L477.787 386.204Z" fill="#E0E0E0"/>
<path d="M510.508 170.987L471.745 382.306L393.475 394.15L317.2 343.51L237.107 362.576L157.747 314.618L195.122 115.738L274.413 156.243L348.705 143.38L429.83 182.968L466.116 177.579L510.508 170.987Z" fill="#EBEBEB"/>
<path d="M451.91 178.703L451.68 258.165L178.176 328.376L191.796 337.364L449.903 270.284L452.139 385.276L468.774 382.753L466.115 177.579L451.91 178.703Z" fill="#FAFAFA"/>
<path d="M506.23 189.893L465.152 199.122L466.574 212.18L504.763 202.286L506.23 189.893Z" fill="#FAFAFA"/>
<path d="M496.383 247.996L466.953 241.507L467.148 256.457L494.25 262.534L496.383 247.996Z" fill="#FAFAFA"/>
<path d="M485.536 307.086L467.823 308.633L467.926 317.186L484.137 316.659L485.536 307.086Z" fill="#FAFAFA"/>
<path d="M452.14 385.276L429.462 388.704L424.223 342.959L388.613 346.582L385.208 388.658L370.143 378.66L370.453 290.932L449.904 270.284L452.14 385.276Z" fill="#E0E0E0"/>
<path d="M361.362 293.294L361.798 340.425L362.107 373.318L370.144 378.66L370.97 287.435L361.362 293.294Z" fill="#FAFAFA"/>
<path d="M324.537 348.37L361.797 340.425L361.9 351.466L336.254 356.155L324.537 348.37Z" fill="#FAFAFA"/>
<path d="M409.961 173.269L415.969 267.337L402.463 270.8L394.851 165.897L409.961 173.269Z" fill="#FAFAFA"/>
<path d="M369.41 279.284L367.117 161.838L358.989 165.083L359.619 205.943L275.135 230.409L255.06 149.25L239.606 140.605L264.335 232.932L283.481 304.942C283.481 304.942 294.637 302.351 294.247 300.517C293.857 298.682 278.976 245.222 278.976 245.222L360.926 218.646L362.405 286.174L369.41 279.284Z" fill="#FAFAFA"/>
<path d="M272.166 244.224L215.392 260.825L189.012 148.252L193.999 123.442L223.315 245.852L269.988 231.521L272.166 244.224Z" fill="#FAFAFA"/>
<path d="M303.717 347.568L294.258 300.516L283.023 303.199L293.009 350.801L303.717 347.568Z" fill="#FAFAFA"/>
<path d="M186.765 231.705L209.97 346.181L189.436 333.237L169.224 257.374L172.136 237.54L186.765 231.705Z" fill="#E0E0E0"/>
<path opacity="0.1" d="M429.83 182.968L393.475 394.149L471.745 382.306L510.508 170.987L429.83 182.968Z" fill="#455A64"/>
<path d="M377.791 157.573L369.777 160.772L171.791 239.868L177.593 209.039L348.705 143.38L377.791 157.573Z" fill="#E0E0E0"/>
<path opacity="0.1" d="M348.706 143.38L317.201 343.509L237.108 362.575L274.414 156.243L348.706 143.38Z" fill="#455A64"/>
<path d="M38.1 470.78H147.589L141.421 464.692H34.4886L38.1 470.78Z" fill="#E0E0E0"/>
<path d="M28.3321 514.381C28.3321 514.541 139.541 514.679 276.671 514.679C413.802 514.679 525.033 514.541 525.033 514.381C525.033 514.22 413.825 514.083 276.671 514.083C139.518 514.083 28.3321 514.197 28.3321 514.381Z" fill="#263238"/>
<path d="M385.381 111.129C385.381 111.21 386.688 110.682 389.118 110.143C392.552 109.39 396.092 109.251 399.574 109.731C404.745 110.414 409.623 112.521 413.664 115.818C418.62 119.85 422.116 125.396 423.616 131.606C423.616 131.663 423.616 131.72 423.616 131.778L423.903 132.924L424.338 131.846C426.781 125.969 430.951 120.972 436.296 117.515C440.648 114.684 445.653 113.014 450.833 112.666C454.324 112.417 457.833 112.739 461.22 113.617C463.617 114.248 464.889 114.764 464.912 114.764C464.629 114.589 464.33 114.444 464.018 114.328C463.126 113.914 462.206 113.562 461.266 113.273C457.857 112.294 454.305 111.906 450.765 112.127C445.464 112.411 440.329 114.066 435.86 116.931C430.377 120.455 426.107 125.577 423.627 131.606L424.35 131.674V131.491C422.816 125.12 419.216 119.435 414.112 115.326C409.953 111.986 404.939 109.885 399.643 109.261C396.102 108.821 392.511 109.038 389.05 109.903C388.113 110.133 387.194 110.428 386.298 110.785C385.981 110.868 385.674 110.983 385.381 111.129Z" fill="#263238"/>
<path d="M272.578 70.4408C272.578 70.4408 273.312 70.2345 274.653 69.9479C276.541 69.5686 278.48 69.5143 280.386 69.7873C283.199 70.174 285.85 71.3328 288.044 73.1351C290.737 75.3353 292.637 78.3545 293.456 81.7337V81.8254L293.742 82.9719L294.178 81.8942C295.494 78.6881 297.753 75.9574 300.656 74.0637C303.026 72.5112 305.752 71.5879 308.578 71.381C310.501 71.2249 312.438 71.3837 314.31 71.851C315.629 72.172 316.339 72.4586 316.362 72.4013C316.385 72.344 316.202 72.2867 315.869 72.1262C315.391 71.9032 314.896 71.7154 314.39 71.5644C312.047 70.8478 309.577 70.6468 307.148 70.9753C304.72 71.3038 302.392 72.154 300.323 73.4675C297.271 75.4218 294.893 78.2676 293.513 81.619H294.235V81.5158C293.374 77.9703 291.357 74.8122 288.503 72.5389C286.192 70.6989 283.412 69.5432 280.478 69.2026C278.516 68.9769 276.53 69.1168 274.619 69.6154C274.102 69.749 273.596 69.9215 273.106 70.1313C272.739 70.3262 272.567 70.4064 272.578 70.4408Z" fill="#263238"/>
<path d="M349.187 30.2795C349.187 30.2795 349.898 31.105 351.194 32.5725C353.012 34.6405 354.653 36.8571 356.101 39.1992C360.914 46.9337 363.438 55.8736 363.381 64.9835C363.387 65.0904 363.387 65.1976 363.381 65.3045H364.137C364.878 60.4133 366.473 55.6904 368.85 51.3519C372.099 45.3917 376.687 40.2664 382.252 36.3788C383.102 35.8478 383.925 35.2738 384.717 34.6591C384.471 34.7469 384.237 34.8623 384.017 35.003C383.57 35.2553 382.871 35.5877 382.08 36.1495C379.76 37.6334 377.604 39.359 375.648 41.2972C369.077 47.7346 364.772 56.1309 363.381 65.2243H364.137V64.9033C364.204 55.6552 361.566 46.5893 356.548 38.8208C355.049 36.4796 353.325 34.2909 351.4 32.2859C350.735 31.5521 350.15 31.0591 349.784 30.7037C349.596 30.5479 349.396 30.4061 349.187 30.2795Z" fill="#263238"/>
<path d="M0.828339 409.363H308.75V416.494H0.828339V409.363Z" fill="#E0E0E0"/>
<path d="M305.643 416.632C305.643 416.632 305.643 416.506 305.643 416.231C305.643 415.956 305.643 415.52 305.643 414.97C305.643 413.823 305.643 412.115 305.643 409.799V409.696H305.551C287.391 409.558 227.51 409.467 156.508 409.467L46.3087 409.558L12.9232 409.661L3.84314 409.73H1.48138C0.942535 409.73 0.678833 409.73 0.678833 409.73C0.678833 409.73 0.942535 409.73 1.48138 409.73H3.84314L12.9232 409.799L46.3087 409.902L156.508 410.005C227.453 410.005 287.333 409.902 305.494 409.765L305.402 409.673C305.402 411.966 305.402 413.697 305.402 414.844C305.402 415.394 305.402 415.807 305.402 416.105C305.402 416.403 305.643 416.632 305.643 416.632Z" fill="#263238"/>
<path d="M268.978 409.868C268.535 412.101 268.535 414.399 268.978 416.632C269.421 414.399 269.421 412.101 268.978 409.868Z" fill="#263238"/>
<path d="M228.601 409.868C228.158 412.101 228.158 414.399 228.601 416.632C229.044 414.399 229.044 412.101 228.601 409.868Z" fill="#263238"/>
<path d="M188.219 409.868C187.776 412.101 187.776 414.399 188.219 416.632C188.663 414.399 188.663 412.101 188.219 409.868Z" fill="#263238"/>
<path d="M147.841 409.868C147.398 412.101 147.398 414.399 147.841 416.632C148.285 414.399 148.285 412.101 147.841 409.868Z" fill="#263238"/>
<path d="M107.462 409.868C107.019 412.101 107.019 414.399 107.462 416.632C107.906 414.399 107.906 412.101 107.462 409.868Z" fill="#263238"/>
<path d="M67.0836 409.868C66.6403 412.101 66.6403 414.399 67.0836 416.632C67.5268 414.399 67.5268 412.101 67.0836 409.868Z" fill="#263238"/>
<path d="M26.7505 409.868C26.3073 412.101 26.3073 414.399 26.7505 416.632C27.1938 414.399 27.1938 412.101 26.7505 409.868Z" fill="#263238"/>
<path d="M172.891 63.9631H254.486V409.019H172.891V63.9631Z" fill="#455A64"/>
<path d="M214.578 81.1833H239.376V128.969H214.578V81.1833Z" fill="white"/>
<path d="M226.238 128.98C226.421 128.98 226.57 118.272 226.57 105.076C226.57 91.88 226.421 81.1833 226.238 81.1833C226.054 81.1833 225.917 91.88 225.917 105.076C225.917 118.272 226.089 128.98 226.238 128.98Z" fill="#263238"/>
<path d="M214.578 97.7843C218.7 98.1164 222.837 98.2274 226.971 98.1168C231.109 98.2274 235.25 98.1164 239.376 97.7843C235.25 97.4522 231.109 97.3412 226.971 97.4518C222.837 97.3413 218.7 97.4522 214.578 97.7843Z" fill="#263238"/>
<path d="M214.441 114.878C218.601 115.21 222.776 115.321 226.949 115.211C231.117 115.321 235.289 115.21 239.445 114.878C235.289 114.546 231.117 114.435 226.949 114.546C222.776 114.435 218.601 114.546 214.441 114.878Z" fill="#263238"/>
<path d="M214.475 144.24H239.273V192.025H214.475V144.24Z" fill="white"/>
<path d="M226.18 192.037C226.364 192.037 226.513 181.34 226.513 168.144C226.513 154.948 226.364 144.251 226.18 144.251C225.997 144.251 225.848 154.948 225.848 168.144C225.848 181.34 225.997 192.037 226.18 192.037Z" fill="#263238"/>
<path d="M214.475 160.841C218.601 161.172 222.742 161.283 226.88 161.173C231.014 161.284 235.151 161.173 239.273 160.841C235.151 160.509 231.014 160.398 226.88 160.508C222.742 160.398 218.601 160.509 214.475 160.841Z" fill="#263238"/>
<path d="M214.35 177.935C218.506 178.267 222.678 178.378 226.846 178.267C231.019 178.378 235.194 178.267 239.354 177.935C235.194 177.603 231.019 177.492 226.846 177.602C222.678 177.492 218.506 177.603 214.35 177.935Z" fill="#263238"/>
<path d="M214.475 206.746H239.273V254.531H214.475V206.746Z" fill="white"/>
<path d="M226.18 254.531C226.364 254.531 226.513 243.834 226.513 230.638C226.513 217.443 226.364 206.746 226.18 206.746C225.997 206.746 225.848 217.443 225.848 230.638C225.848 243.834 225.997 254.531 226.18 254.531Z" fill="#263238"/>
<path d="M214.475 223.347C218.601 223.679 222.742 223.79 226.88 223.679C231.014 223.79 235.151 223.679 239.273 223.347C235.151 223.015 231.014 222.904 226.88 223.014C222.742 222.904 218.601 223.015 214.475 223.347Z" fill="#263238"/>
<path d="M214.35 240.441C218.506 240.773 222.678 240.884 226.846 240.773C231.019 240.884 235.194 240.773 239.354 240.441C235.194 240.109 231.019 239.998 226.846 240.108C222.678 239.998 218.506 240.109 214.35 240.441Z" fill="#263238"/>
<path d="M214.475 271.052H239.273V318.837H214.475V271.052Z" fill="white"/>
<path d="M226.18 318.849C226.364 318.849 226.513 308.152 226.513 294.956C226.513 281.76 226.364 271.052 226.18 271.052C225.997 271.052 225.848 281.749 225.848 294.956C225.848 308.164 225.997 318.849 226.18 318.849Z" fill="#263238"/>
<path d="M214.475 287.653C218.601 287.985 222.742 288.096 226.88 287.985C231.014 288.096 235.151 287.985 239.273 287.653C235.15 287.335 231.014 287.228 226.88 287.332C222.742 287.228 218.602 287.336 214.475 287.653Z" fill="#263238"/>
<path d="M214.35 304.747C218.506 305.079 222.678 305.19 226.846 305.079C231.019 305.19 235.194 305.079 239.354 304.747C235.194 304.415 231.019 304.304 226.846 304.414C222.678 304.304 218.506 304.415 214.35 304.747Z" fill="#263238"/>
<path d="M138.188 63.9631H197.645V409.019H138.188V63.9631Z" fill="#455A64"/>
<g opacity="0.3">
<path opacity="0.3" d="M138.187 63.9631H197.644V409.019H138.187V63.9631Z" fill="#455A64"/>
</g>
<path d="M155.97 81.1833H180.769V128.969H155.97V81.1833Z" fill="white"/>
<path d="M167.664 128.98C167.847 128.98 167.996 118.272 167.996 105.076C167.996 91.88 167.847 81.1833 167.664 81.1833C167.48 81.1833 167.331 91.88 167.331 105.076C167.331 118.272 167.48 128.98 167.664 128.98Z" fill="#263238"/>
<path d="M155.97 97.7843C160.092 98.1164 164.23 98.2274 168.364 98.1168C172.502 98.2274 176.642 98.1164 180.769 97.7843C176.642 97.4522 172.502 97.3412 168.364 97.4518C164.23 97.3413 160.092 97.4522 155.97 97.7843Z" fill="#263238"/>
<path d="M155.833 114.878C159.994 115.21 164.169 115.321 168.341 115.211C172.51 115.321 176.681 115.21 180.838 114.878C176.681 114.546 172.51 114.435 168.341 114.546C164.169 114.435 159.994 114.546 155.833 114.878Z" fill="#263238"/>
<path d="M155.868 146.04H180.666V193.825H155.868V146.04Z" fill="white"/>
<path d="M167.573 193.836C167.756 193.836 167.905 183.128 167.905 169.932C167.905 156.736 167.756 146.04 167.573 146.04C167.389 146.04 167.24 156.736 167.24 169.932C167.24 183.128 167.389 193.836 167.573 193.836Z" fill="#263238"/>
<path d="M155.868 162.641C159.994 162.972 164.135 163.083 168.273 162.973C172.407 163.084 176.544 162.973 180.666 162.641C176.544 162.309 172.407 162.198 168.273 162.308C164.135 162.198 159.994 162.309 155.868 162.641Z" fill="#263238"/>
<path d="M155.741 179.735C159.898 180.067 164.069 180.178 168.238 180.067C172.41 180.178 176.586 180.067 180.746 179.735C176.586 179.403 172.41 179.292 168.238 179.402C164.069 179.292 159.898 179.403 155.741 179.735Z" fill="#263238"/>
<path d="M155.868 206.746H180.666V254.531H155.868V206.746Z" fill="white"/>
<path d="M167.573 254.531C167.756 254.531 167.905 243.834 167.905 230.638C167.905 217.443 167.756 206.746 167.573 206.746C167.389 206.746 167.24 217.443 167.24 230.638C167.24 243.834 167.389 254.531 167.573 254.531Z" fill="#263238"/>
<path d="M155.868 223.347C159.994 223.679 164.135 223.79 168.273 223.679C172.407 223.79 176.544 223.679 180.666 223.347C176.544 223.015 172.407 222.904 168.273 223.014C164.135 222.904 159.994 223.015 155.868 223.347Z" fill="#263238"/>
<path d="M155.741 240.441C159.898 240.773 164.069 240.884 168.238 240.773C172.41 240.884 176.586 240.773 180.746 240.441C176.586 240.109 172.41 239.998 168.238 240.108C164.069 239.998 159.898 240.109 155.741 240.441Z" fill="#263238"/>
<path d="M154.857 272.095H179.655V319.881H154.857V272.095Z" fill="white"/>
<path d="M166.564 319.881C166.747 319.881 166.885 309.184 166.885 295.988C166.885 282.792 166.747 272.095 166.564 272.095C166.38 272.095 166.231 282.792 166.231 295.988C166.231 309.184 166.38 319.881 166.564 319.881Z" fill="#263238"/>
<path d="M154.857 288.696C158.979 289.028 163.116 289.139 167.25 289.029C171.388 289.139 175.529 289.028 179.655 288.696C175.529 288.364 171.388 288.253 167.25 288.364C163.116 288.253 158.979 288.364 154.857 288.696Z" fill="#263238"/>
<path d="M154.731 305.79C158.888 306.122 163.059 306.233 167.228 306.123C171.396 306.233 175.568 306.122 179.725 305.79C175.568 305.458 171.396 305.347 167.228 305.458C163.059 305.347 158.888 305.458 154.731 305.79Z" fill="#263238"/>
<path d="M214.475 336.883H239.273V384.668H214.475V336.883Z" fill="white"/>
<path d="M226.18 384.645C226.364 384.645 226.513 373.937 226.513 360.741C226.513 347.545 226.364 336.848 226.18 336.848C225.997 336.848 225.848 347.545 225.848 360.741C225.848 373.937 225.997 384.645 226.18 384.645Z" fill="#263238"/>
<path d="M214.475 353.484C218.601 353.816 222.742 353.926 226.88 353.816C231.014 353.927 235.151 353.816 239.273 353.484C235.151 353.152 231.014 353.041 226.88 353.151C222.742 353.041 218.601 353.152 214.475 353.484Z" fill="#263238"/>
<path d="M214.35 370.578C218.506 370.91 222.678 371.021 226.846 370.91C231.019 371.021 235.194 370.91 239.354 370.578C235.194 370.246 231.019 370.135 226.846 370.245C222.678 370.135 218.506 370.246 214.35 370.578Z" fill="#263238"/>
<path d="M155.868 338.935H180.666V386.72H155.868V338.935Z" fill="white"/>
<path d="M167.573 386.72C167.756 386.72 167.905 376.024 167.905 362.828C167.905 349.632 167.756 338.935 167.573 338.935C167.389 338.935 167.24 349.632 167.24 362.828C167.24 376.024 167.389 386.72 167.573 386.72Z" fill="#263238"/>
<path d="M155.868 355.536C159.994 355.868 164.135 355.979 168.273 355.868C172.407 355.979 176.544 355.868 180.666 355.536C176.544 355.204 172.407 355.093 168.273 355.204C164.135 355.093 159.994 355.204 155.868 355.536Z" fill="#263238"/>
<path d="M155.741 372.63C159.898 372.962 164.069 373.073 168.238 372.962C172.41 373.073 176.586 372.962 180.746 372.63C176.586 372.298 172.41 372.187 168.238 372.298C164.069 372.187 159.898 372.298 155.741 372.63Z" fill="#263238"/>
<path d="M97.5802 255.414H68.666V213.625H97.5802V255.414Z" fill="#ED502E"/>
<g opacity="0.3">
<path opacity="0.3" d="M97.5802 255.414H68.666V213.625H97.5802V255.414Z" fill="#455A64"/>
</g>
<path d="M123.593 255.414H94.6787V213.625H123.593V255.414Z" fill="#ED502E"/>
<path d="M116.693 246.976C116.693 246.976 116.693 246.838 116.693 246.552C116.693 246.265 116.693 245.795 116.693 245.268C116.693 244.121 116.693 242.436 116.693 240.361C116.693 236.107 116.75 230.134 116.796 223.163V222.991H103.566L103.359 223.209V229.87C103.359 232.037 103.359 234.124 103.359 236.142C103.359 240.154 103.359 243.823 103.359 246.999V247.159H103.566L113.207 247.079H115.81H116.475C116.624 247.079 116.693 247.079 116.693 247.079H116.44H115.741H113.104L103.566 246.999L103.726 247.148C103.726 243.972 103.726 240.269 103.726 236.291C103.726 234.273 103.726 232.186 103.726 230.019V223.358C103.909 223.163 103.474 223.599 103.52 223.553H116.693L116.498 223.358C116.498 230.237 116.567 236.199 116.59 240.429C116.59 242.516 116.59 244.19 116.647 245.371C116.647 245.921 116.647 246.368 116.647 246.701C116.656 246.793 116.671 246.885 116.693 246.976Z" fill="#263238"/>
<path d="M114.066 236.359C114.066 236.359 113.745 236.359 113.585 236.692C113.538 236.805 113.52 236.928 113.532 237.05C113.544 237.172 113.585 237.289 113.654 237.391C113.755 237.512 113.892 237.599 114.044 237.641C114.197 237.683 114.358 237.677 114.507 237.625C114.657 237.573 114.787 237.476 114.88 237.349C114.973 237.221 115.025 237.068 115.029 236.91C115.016 236.786 114.974 236.668 114.906 236.564C114.839 236.461 114.747 236.375 114.639 236.313C114.273 236.119 114.02 236.313 114.066 236.313C114.112 236.313 114.284 236.313 114.479 236.508C114.538 236.549 114.585 236.606 114.613 236.673C114.641 236.739 114.649 236.812 114.637 236.883C114.625 236.954 114.593 237.02 114.545 237.074C114.496 237.127 114.434 237.166 114.364 237.185C114.009 237.322 113.814 237.001 113.871 236.726C113.929 236.451 114.078 236.417 114.066 236.359Z" fill="#263238"/>
<path d="M153.058 409.283H33.1475L33.1475 247.664L153.058 247.664V409.283Z" fill="#ED502E"/>
<path d="M81.1611 409.283L16.8436 409.363V247.675H81.1611V409.283Z" fill="#ED502E"/>
<g opacity="0.3">
<path opacity="0.3" d="M81.1641 409.283L16.8465 409.363V247.675H81.1641V409.283Z" fill="#455A64"/>
</g>
<path d="M144.252 357.29H122.32V335.358H144.252V357.29Z" fill="#EBEBEB"/>
<path d="M134.13 359.491C134.244 359.491 134.336 353.816 134.336 346.88C134.336 339.944 134.244 334.269 134.13 334.269C134.015 334.269 133.923 339.932 133.923 346.88C133.923 353.828 134.015 359.491 134.13 359.491Z" fill="#455A64"/>
<path d="M148.368 342.707C148.368 342.592 141.994 342.5 134.129 342.5C126.264 342.5 119.878 342.592 119.878 342.707C119.878 342.822 126.253 342.913 134.129 342.913C142.005 342.913 148.368 342.822 148.368 342.707Z" fill="#455A64"/>
<path d="M112.965 357.29H91.0332V335.358H112.965V357.29Z" fill="#EBEBEB"/>
<path d="M102.843 359.491C102.957 359.491 103.061 353.816 103.061 346.88C103.061 339.944 102.957 334.269 102.843 334.269C102.728 334.269 102.636 339.932 102.636 346.88C102.636 353.828 102.728 359.491 102.843 359.491Z" fill="#455A64"/>
<path d="M117.092 342.707C117.092 342.592 110.717 342.5 102.853 342.5C94.9877 342.5 88.6018 342.592 88.6018 342.707C88.6018 342.822 94.9762 342.913 102.853 342.913C110.729 342.913 117.092 342.822 117.092 342.707Z" fill="#455A64"/>
<path d="M144.252 322.644H122.32V300.711H144.252V322.644Z" fill="#EBEBEB"/>
<path d="M134.13 324.845C134.244 324.845 134.336 319.17 134.336 312.233C134.336 305.297 134.244 299.622 134.13 299.622C134.015 299.622 133.923 305.286 133.923 312.233C133.923 319.181 134.015 324.845 134.13 324.845Z" fill="#455A64"/>
<path d="M148.368 308.06C148.368 307.946 141.994 307.854 134.129 307.854C126.264 307.854 119.878 307.946 119.878 308.06C119.878 308.175 126.253 308.267 134.129 308.267C142.005 308.267 148.368 308.175 148.368 308.06Z" fill="#455A64"/>
<path d="M112.965 322.644H91.0332V300.711H112.965V322.644Z" fill="#EBEBEB"/>
<path d="M102.843 324.845C102.957 324.845 103.061 319.17 103.061 312.233C103.061 305.297 102.957 299.622 102.843 299.622C102.728 299.622 102.636 305.286 102.636 312.233C102.636 319.181 102.728 324.845 102.843 324.845Z" fill="#455A64"/>
<path d="M117.092 308.06C117.092 307.946 110.717 307.854 102.853 307.854C94.9877 307.854 88.6018 307.946 88.6018 308.06C88.6018 308.175 94.9762 308.267 102.853 308.267C110.729 308.267 117.092 308.175 117.092 308.06Z" fill="#455A64"/>
<path d="M144.252 287.905H122.32V265.973H144.252V287.905Z" fill="#EBEBEB"/>
<path d="M134.13 290.118C134.244 290.118 134.336 284.443 134.336 277.507C134.336 270.57 134.244 264.895 134.13 264.895C134.015 264.895 133.923 270.559 133.923 277.507C133.923 284.454 134.015 290.118 134.13 290.118Z" fill="#455A64"/>
<path d="M148.368 273.333C148.368 273.219 141.994 273.127 134.129 273.127C126.264 273.127 119.878 273.219 119.878 273.333C119.878 273.448 126.253 273.54 134.129 273.54C142.005 273.54 148.368 273.436 148.368 273.333Z" fill="#455A64"/>
<path d="M112.965 287.905H91.0332V265.973H112.965V287.905Z" fill="#EBEBEB"/>
<path d="M102.843 290.118C102.957 290.118 103.061 284.443 103.061 277.507C103.061 270.571 102.957 264.896 102.843 264.896C102.728 264.896 102.636 270.559 102.636 277.507C102.636 284.454 102.728 290.118 102.843 290.118Z" fill="#455A64"/>
<path d="M117.092 273.333C117.092 273.219 110.717 273.127 102.853 273.127C94.9877 273.127 88.6018 273.219 88.6018 273.333C88.6018 273.448 94.9762 273.54 102.853 273.54C110.729 273.54 117.092 273.436 117.092 273.333Z" fill="#455A64"/>
<g opacity="0.7">
<path opacity="0.7" d="M59.1382 287.905H37.2061V265.973H59.1382V287.905Z" fill="white"/>
</g>
<path d="M48.1667 290.118C48.2813 290.118 48.373 284.443 48.373 277.507C48.373 270.571 48.2813 264.896 48.1667 264.896C48.052 264.896 47.9603 270.559 47.9603 277.507C47.9603 284.454 48.052 290.118 48.1667 290.118Z" fill="#263238"/>
<path d="M63.2529 273.333C63.2529 273.219 56.867 273.127 49.0022 273.127C41.1373 273.127 34.7629 273.219 34.7629 273.333C34.7629 273.448 41.1373 273.54 49.0022 273.54C56.867 273.54 63.2529 273.436 63.2529 273.333Z" fill="#263238"/>
<g opacity="0.7">
<path opacity="0.7" d="M59.1382 322.976H37.2061V301.044H59.1382V322.976Z" fill="white"/>
</g>
<path d="M48.1667 325.189C48.2813 325.189 48.373 319.514 48.373 312.577C48.373 305.641 48.2813 299.966 48.1667 299.966C48.052 299.966 47.9603 305.63 47.9603 312.577C47.9603 319.525 48.052 325.189 48.1667 325.189Z" fill="#263238"/>
<path d="M63.2529 308.404C63.2529 308.289 56.867 308.198 49.0022 308.198C41.1373 308.198 34.7629 308.289 34.7629 308.404C34.7629 308.519 41.1373 308.61 49.0022 308.61C56.867 308.61 63.2529 308.519 63.2529 308.404Z" fill="#263238"/>
<g opacity="0.7">
<path opacity="0.7" d="M59.1382 358.058H37.2061V336.126H59.1382V358.058Z" fill="white"/>
</g>
<path d="M48.1667 360.248C48.2813 360.248 48.373 354.584 48.373 347.637C48.373 340.689 48.2813 335.025 48.1667 335.025C48.052 335.025 47.9603 340.7 47.9603 347.637C47.9603 354.573 48.052 360.248 48.1667 360.248Z" fill="#263238"/>
<path d="M63.2529 343.475C63.2529 343.36 56.867 343.269 49.0022 343.269C41.1373 343.269 34.7629 343.36 34.7629 343.475C34.7629 343.59 41.1373 343.681 49.0022 343.681C56.867 343.681 63.2529 343.59 63.2529 343.475Z" fill="#263238"/>
<path d="M128.226 408.561C128.226 408.561 128.226 408.492 128.226 408.366C128.226 408.24 128.226 408.022 128.226 407.781C128.226 407.238 128.226 406.493 128.226 405.545C128.226 403.562 128.226 400.73 128.283 397.199C128.283 390.057 128.283 380.105 128.363 368.698V368.503H105.434V368.698C105.434 380.162 105.434 390.24 105.502 397.451C105.502 401.017 105.502 403.883 105.502 405.878C105.502 406.852 105.502 407.598 105.502 408.171C105.502 408.412 105.502 408.607 105.502 408.756C105.502 408.905 105.502 408.951 105.502 408.951C105.507 408.886 105.507 408.82 105.502 408.756C105.502 408.607 105.502 408.412 105.502 408.171C105.502 407.621 105.502 406.875 105.502 405.878C105.502 403.883 105.502 401.017 105.502 397.451C105.502 390.24 105.502 380.197 105.571 368.698L105.376 368.904H127.847L127.641 368.698C127.641 380.162 127.698 390.057 127.721 397.199C127.721 400.73 127.721 403.562 127.779 405.545C127.779 406.501 127.779 407.246 127.779 407.781C127.779 408.022 127.779 408.217 127.779 408.366C127.779 408.515 128.226 408.561 128.226 408.561Z" fill="#263238"/>
<path d="M116.233 389.403H108.574V371.071H116.233V389.403Z" fill="#E0E0E0"/>
<path d="M108.551 389.426H116.255V371.082H108.551V389.426ZM116.22 389.426H108.596V371.082H116.175L116.22 389.426Z" fill="#263238"/>
<path d="M125.394 389.403H117.735V371.071H125.394V389.403Z" fill="#E0E0E0"/>
<path d="M117.712 389.426H125.416V371.082H117.712V389.426ZM125.382 389.426H117.758V371.082H125.347L125.382 389.426Z" fill="#263238"/>
<path d="M125.554 391.306C125.554 391.364 125.932 391.364 126.104 391.799C126.155 391.915 126.182 392.04 126.182 392.166C126.182 392.292 126.155 392.417 126.104 392.533C126.031 392.659 125.923 392.761 125.792 392.826C125.662 392.892 125.515 392.917 125.37 392.9C125.229 392.86 125.102 392.781 125.005 392.671C124.907 392.561 124.843 392.426 124.82 392.281C124.799 392.157 124.811 392.031 124.855 391.914C124.9 391.797 124.975 391.694 125.072 391.616C125.439 391.318 125.783 391.386 125.794 391.329C125.806 391.272 125.439 391.054 124.9 391.386C124.742 391.483 124.615 391.623 124.534 391.79C124.453 391.956 124.421 392.143 124.442 392.327C124.441 392.576 124.53 392.818 124.691 393.009C124.852 393.199 125.076 393.327 125.322 393.368C125.568 393.409 125.821 393.362 126.036 393.234C126.25 393.106 126.413 392.907 126.494 392.671C126.564 392.503 126.594 392.321 126.58 392.139C126.566 391.958 126.509 391.782 126.414 391.627C126.356 391.522 126.275 391.43 126.178 391.359C126.081 391.287 125.97 391.238 125.852 391.215C125.634 391.237 125.554 391.272 125.554 391.306Z" fill="#263238"/>
<path d="M149.125 368.698C149.13 368.614 149.13 368.529 149.125 368.445C149.125 368.227 149.125 367.975 149.125 367.677C149.125 366.921 149.125 365.946 149.125 364.754H149.068H136.273L136.193 364.834V368.824H136.273H145.445H148.116H145.422H136.25L136.33 368.904V364.994C136.17 365.166 136.33 364.994 136.25 365.086H149.045V365.029C149.045 366.175 149.045 367.173 149.045 367.918C149.045 368.216 149.045 368.48 149.045 368.698C149.045 368.915 149.125 368.698 149.125 368.698Z" fill="#263238"/>
<path d="M99.3459 360.569C99.3508 360.481 99.3508 360.393 99.3459 360.305C99.3459 360.088 99.3459 359.835 99.3459 359.537C99.3459 358.792 99.3459 357.818 99.3459 356.625V356.568H99.2886H86.4939C86.4939 356.568 86.5742 356.476 86.4136 356.648V360.661H86.4939H95.6657H98.337H95.6543H86.4824L86.5627 360.753V356.82L86.4824 356.9H99.2772C99.2772 358.047 99.2772 359.044 99.2772 359.778C99.2772 360.088 99.2772 360.34 99.2772 360.558C99.2772 360.775 99.3459 360.569 99.3459 360.569Z" fill="#263238"/>
<path d="M91.3652 328.468C91.3652 328.468 91.3652 328.387 91.3652 328.215V327.447C91.3652 326.702 91.3652 325.727 91.3652 324.524H78.5705L78.4788 324.604V328.594H78.5591H87.7309H90.4022H87.7194H78.5476L78.6279 328.674C78.6279 328.055 78.6279 327.401 78.6279 326.748V324.764C78.4559 324.936 78.6278 324.764 78.5476 324.856H91.3423L91.285 324.799C91.285 325.945 91.285 326.954 91.285 327.688V328.468C91.3118 328.468 91.3385 328.468 91.3652 328.468Z" fill="#263238"/>
<path d="M137.374 293.959V293.695C137.374 293.477 137.374 293.225 137.374 292.927C137.374 292.182 137.374 291.207 137.374 290.015H124.568L124.488 290.095V294.073H124.568H133.74H136.411H133.728H124.556L124.637 294.165C124.637 293.534 124.637 292.892 124.637 292.227V290.232L124.545 290.313H137.351H137.294C137.294 291.459 137.294 292.457 137.294 293.19V293.97C137.363 293.855 137.374 293.959 137.374 293.959Z" fill="#263238"/>
<path d="M100.951 257.111C100.956 257.027 100.956 256.942 100.951 256.858C100.951 256.641 100.951 256.388 100.951 256.09C100.951 255.326 100.951 254.351 100.951 253.167H88.1564L88.0761 253.247V257.237H88.1564H97.3283H99.9996H97.3168H88.1449L88.2252 257.317V253.407C88.0647 253.579 88.2252 253.408 88.1449 253.499H100.94V253.442C100.94 254.588 100.94 255.597 100.94 256.331C100.94 256.629 100.94 256.893 100.94 257.111C100.94 257.328 100.951 257.111 100.951 257.111Z" fill="#263238"/>
<path d="M145.124 297.765C145.129 297.681 145.129 297.597 145.124 297.513V296.744C145.124 295.999 145.124 295.025 145.124 293.832V293.775H145.067H132.272C132.272 293.775 132.352 293.695 132.18 293.867V295.85C132.18 296.515 132.18 297.157 132.18 297.776V297.857H132.26H141.432H144.092H141.409H132.238L132.318 297.937V294.027L132.238 294.108H145.032H144.975C144.975 295.254 144.975 296.251 144.975 296.985C144.975 297.295 144.975 297.547 144.975 297.765C145.025 297.766 145.074 297.766 145.124 297.765Z" fill="#263238"/>
<path d="M85.873 332.331C85.873 332.331 85.873 332.251 85.873 332.079C85.873 331.907 85.873 331.609 85.873 331.311C85.873 330.554 85.873 329.58 85.873 328.387H73.0783L72.9866 328.467V330.451C72.9866 331.104 72.9866 331.746 72.9866 332.377V332.457H73.0668H82.2387H84.8985H82.2158H73.0439L73.1242 332.537V328.467L73.0439 328.548H85.8387L85.7813 328.49C85.7813 329.667 85.7813 330.631 85.7813 331.38C85.7813 331.678 85.7813 331.93 85.7813 332.159C85.7813 332.388 85.873 332.331 85.873 332.331Z" fill="#263238"/>
<path d="M91.3652 261.054C91.3652 261.054 91.3652 260.974 91.3652 260.802V260.034C91.3652 259.277 91.3652 258.303 91.3652 257.111H78.5705L78.4788 257.191V261.181H78.5591H87.7309H90.4022H87.7194H78.5476L78.6279 261.261C78.6279 260.63 78.6279 259.988 78.6279 259.335V257.351L78.5476 257.432H91.3423L91.285 257.374C91.285 258.559 91.285 259.522 91.285 260.263V260.825C91.3538 260.951 91.3652 261.054 91.3652 261.054Z" fill="#263238"/>
<path d="M153.277 372.642C153.283 372.558 153.283 372.473 153.277 372.389C153.277 372.172 153.277 371.919 153.277 371.621C153.277 370.876 153.277 369.902 153.277 368.698H153.22H140.425L140.345 368.778V372.768H140.425H149.597H152.268H149.574H140.402L140.483 372.848V370.922C140.483 370.589 140.483 370.257 140.483 369.924V368.939L140.391 369.03H153.186V368.973C153.186 370.119 153.186 371.128 153.186 371.862C153.186 372.16 153.186 372.424 153.186 372.642H153.277Z" fill="#263238"/>
<path d="M42.3438 109.834H152.83V186.74H111.511L97.4092 202.068L83.3763 186.74H42.3438V109.834Z" fill="white"/>
<path d="M42.3429 109.834C42.3429 109.834 42.3429 110.281 42.3429 111.187C42.3429 112.093 42.3429 113.48 42.3429 115.2C42.3429 118.754 42.3428 123.947 42.2855 130.608C42.2855 143.999 42.2167 163.237 42.1594 186.786V187.015H42.4002H83.4327L83.2378 186.923L97.2593 202.263L97.4656 202.493L97.672 202.263L111.785 186.935L111.567 187.027H153.185V186.728C153.185 159.11 153.185 133.004 153.185 109.823V109.547H152.864L72.9653 109.685L50.3682 109.754H44.4065H42.8014H42.297H42.8244H44.3836H50.4026L73.0571 109.834L152.783 109.96L152.52 109.696C152.52 132.878 152.52 158.995 152.52 186.602L152.818 186.304H111.361L111.281 186.396L97.1905 201.736H97.6032L83.5703 186.407L83.49 186.327H83.3639H42.3314L42.5607 186.568C42.5607 163.134 42.469 143.942 42.4346 130.585C42.4346 123.901 42.4346 118.685 42.3773 115.119C42.3773 113.354 42.3773 112.001 42.3773 111.061C42.3773 110.121 42.3429 109.834 42.3429 109.834Z" fill="#263238"/>
<path d="M98.0269 61.8651C102.316 61.9607 106.497 63.2271 110.117 65.5274C113.738 67.8277 116.661 71.0742 118.57 74.9158C120.479 78.7574 121.302 83.0479 120.948 87.3231C120.595 91.5984 119.079 95.6956 116.565 99.1716L116.336 99.4811L99.6548 122.101C99.3146 122.563 98.8685 122.936 98.354 123.188C97.8395 123.441 97.2718 123.567 96.6986 123.555C96.1254 123.542 95.5637 123.392 95.0606 123.117C94.5575 122.843 94.1278 122.451 93.8078 121.975L78.743 99.5843C75.8998 95.2392 73.9393 90.6991 73.9393 85.345C73.9445 82.2116 74.5756 79.1108 75.7956 76.2246C77.0156 73.3384 78.7998 70.725 81.0436 68.5378C83.2874 66.3506 85.9456 64.6337 88.862 63.4878C91.7784 62.342 94.8943 61.7903 98.0269 61.8651ZM97.4651 102.496C100.964 102.496 104.384 101.459 107.293 99.515C110.202 97.5712 112.47 94.8084 113.809 91.5759C115.148 88.3435 115.498 84.7866 114.815 81.355C114.133 77.9234 112.448 74.7713 109.974 72.2973C107.5 69.8233 104.348 68.1385 100.916 67.4559C97.4847 66.7733 93.9278 67.1236 90.6953 68.4626C87.4629 69.8015 84.7 72.0689 82.7562 74.978C80.8124 77.8872 79.7749 81.3074 79.7749 84.8062C79.7749 89.4979 81.6387 93.9975 84.9562 97.315C88.2738 100.633 92.7733 102.496 97.4651 102.496Z" fill="#ED502E"/>
<g opacity="0.3">
<path opacity="0.3" d="M98.0269 61.8651C102.316 61.9607 106.497 63.2271 110.117 65.5274C113.738 67.8277 116.661 71.0742 118.57 74.9158C120.479 78.7574 121.302 83.0479 120.948 87.3231C120.595 91.5984 119.079 95.6956 116.565 99.1716L116.336 99.4811L99.6548 122.101C99.3146 122.563 98.8685 122.936 98.354 123.188C97.8395 123.441 97.2718 123.567 96.6986 123.555C96.1254 123.542 95.5637 123.392 95.0606 123.117C94.5575 122.843 94.1278 122.451 93.8078 121.975L78.743 99.5843C75.8998 95.2392 73.9393 90.6991 73.9393 85.345C73.9445 82.2116 74.5756 79.1108 75.7956 76.2246C77.0156 73.3384 78.7998 70.725 81.0436 68.5378C83.2874 66.3506 85.9456 64.6337 88.862 63.4878C91.7784 62.342 94.8943 61.7903 98.0269 61.8651ZM97.4651 102.496C100.964 102.496 104.384 101.459 107.293 99.515C110.202 97.5712 112.47 94.8084 113.809 91.5759C115.148 88.3435 115.498 84.7866 114.815 81.355C114.133 77.9234 112.448 74.7713 109.974 72.2973C107.5 69.8233 104.348 68.1385 100.916 67.4559C97.4847 66.7733 93.9278 67.1236 90.6953 68.4626C87.4629 69.8015 84.7 72.0689 82.7562 74.978C80.8124 77.8872 79.7749 81.3074 79.7749 84.8062C79.7749 89.4979 81.6387 93.9975 84.9562 97.315C88.2738 100.633 92.7733 102.496 97.4651 102.496Z" fill="#455A64"/>
</g>
<path d="M99.4253 61.8651C103.714 61.9607 107.895 63.2271 111.516 65.5274C115.137 67.8277 118.06 71.0742 119.969 74.9158C121.878 78.7574 122.7 83.0479 122.347 87.3231C121.993 91.5984 120.478 95.6956 117.964 99.1716L117.735 99.4811L101.053 122.101C100.712 122.563 100.265 122.935 99.7492 123.188C99.2339 123.441 98.6653 123.567 98.0914 123.554C97.5174 123.542 96.9548 123.392 96.4508 123.117C95.9468 122.843 95.5161 122.451 95.1948 121.975L80.1415 99.5843C77.2868 95.2392 75.3377 90.6991 75.3377 85.345C75.3429 82.2116 75.9741 79.1108 77.194 76.2246C78.414 73.3384 80.1983 70.725 82.4421 68.5378C84.6859 66.3506 87.344 64.6337 90.2604 63.4878C93.1768 62.342 96.2927 61.7903 99.4253 61.8651ZM98.8635 99.3092C101.515 99.3114 104.107 98.5273 106.313 97.056C108.518 95.5847 110.238 93.4924 111.254 91.0436C112.27 88.5948 112.537 85.8997 112.021 83.2992C111.505 80.6986 110.23 78.3095 108.356 76.434C106.482 74.5585 104.094 73.2809 101.494 72.7628C98.8937 72.2447 96.1984 72.5095 93.7488 73.5236C91.2991 74.5376 89.2053 76.2554 87.7321 78.4597C86.2589 80.6639 85.4726 83.2556 85.4726 85.9068C85.4726 89.4593 86.8831 92.8665 89.394 95.3796C91.905 97.8927 95.311 99.3061 98.8635 99.3092Z" fill="#ED502E"/>
<path d="M58.2905 142.36C58.2905 142.52 69.205 142.658 82.6761 142.658C96.1473 142.658 107.073 142.52 107.073 142.36C107.073 142.199 96.1473 142.062 82.6761 142.062C69.205 142.062 58.2905 142.188 58.2905 142.36Z" fill="#455A64"/>
<path d="M81.1397 152.127C81.1397 152.288 90.1625 152.426 101.295 152.426C112.427 152.426 121.438 152.288 121.438 152.127C121.438 151.967 112.416 151.829 101.295 151.829C90.174 151.829 81.1397 151.967 81.1397 152.127Z" fill="#455A64"/>
<path d="M77.1157 162.285C77.1157 162.457 83.8226 162.583 92.0887 162.583C100.355 162.583 107.073 162.457 107.073 162.285C107.073 162.113 100.366 161.987 92.0887 161.987C83.8112 161.987 77.1157 162.125 77.1157 162.285Z" fill="#455A64"/>
<path d="M54.0594 174.037C54.0594 174.209 64.3777 174.335 77.1151 174.335C89.8525 174.335 100.125 174.209 100.125 174.037C100.125 173.865 89.8067 173.739 77.0693 173.739C64.3319 173.739 54.0594 173.876 54.0594 174.037Z" fill="#455A64"/>
<path d="M435.321 473.807H547L540.717 467.604H431.653L435.321 473.807Z" fill="#E0E0E0"/>
<path d="M341.517 342.936C340.815 342.595 340.147 342.188 339.522 341.721C338.318 340.918 336.678 339.795 334.936 338.522L334.03 337.88L334.363 337.8C333.4 339.485 332.54 340.964 331.898 342.007C331.577 342.595 331.193 343.145 330.751 343.647C330.958 343.019 331.239 342.419 331.588 341.858C332.15 340.769 332.975 339.256 333.881 337.571L334.019 337.341L334.225 337.49L335.142 338.132C336.931 339.405 338.582 340.574 339.728 341.446C340.376 341.876 340.976 342.376 341.517 342.936Z" fill="#263238"/>
<path d="M209.434 469.628C207.984 448.917 223.599 430.951 244.31 429.502C265.021 428.052 282.987 443.666 284.436 464.378C285.886 485.089 270.272 503.054 249.56 504.504C228.849 505.954 210.883 490.339 209.434 469.628Z" fill="#263238"/>
<path d="M286.061 466.309V466.412C286.105 476.293 282.247 485.792 275.325 492.845C268.404 499.897 258.979 503.933 249.099 504.075C239.219 504.217 229.682 500.454 222.561 493.603C215.44 486.752 211.31 477.368 211.07 467.49C211.07 467.49 211.07 467.421 211.07 467.398L286.061 466.309Z" fill="#263238"/>
<path d="M274.895 466.572C274.979 471.791 273.512 476.917 270.68 481.301C267.849 485.685 263.78 489.13 258.989 491.2C254.198 493.271 248.901 493.873 243.768 492.93C238.635 491.988 233.897 489.543 230.154 485.906C226.41 482.269 223.831 477.604 222.741 472.5C221.652 467.396 222.101 462.083 224.033 457.235C225.965 452.386 229.292 448.22 233.593 445.264C237.894 442.308 242.975 440.694 248.194 440.628C255.172 440.539 261.9 443.22 266.905 448.083C271.91 452.946 274.783 459.595 274.895 466.572Z" fill="#FAFAFA"/>
<path d="M248.192 440.628C255.17 440.539 261.899 443.22 266.904 448.083C271.909 452.946 274.782 459.595 274.894 466.572L222.247 467.329C222.158 460.351 224.839 453.622 229.702 448.617C234.565 443.612 241.214 440.739 248.192 440.628Z" fill="#E0E0E0"/>
<path d="M264.61 466.722C264.657 469.897 263.761 473.014 262.036 475.68C260.311 478.346 257.834 480.441 254.919 481.699C252.003 482.956 248.78 483.321 245.657 482.747C242.534 482.172 239.652 480.685 237.374 478.472C235.097 476.259 233.528 473.42 232.864 470.315C232.201 467.209 232.473 463.977 233.647 461.027C234.821 458.076 236.844 455.54 239.46 453.74C242.075 451.939 245.166 450.955 248.341 450.912C252.594 450.853 256.696 452.486 259.747 455.45C262.797 458.415 264.546 462.469 264.61 466.722Z" fill="#263238"/>
<path d="M266.365 411.966C266.365 411.966 227.97 400.352 212.079 442.061L292.425 466.951L266.365 411.966Z" fill="#455A64"/>
<path d="M517.443 466.412C517.549 473.829 515.453 481.11 511.421 487.335C507.389 493.56 501.601 498.45 494.789 501.386C487.978 504.322 480.448 505.172 473.154 503.828C465.859 502.485 459.127 499.009 453.808 493.839C448.489 488.669 444.823 482.038 443.273 474.785C441.723 467.532 442.358 459.981 445.099 453.089C447.84 446.197 452.563 440.272 458.671 436.064C464.779 431.857 471.998 429.555 479.415 429.449C484.339 429.378 489.229 430.278 493.806 432.097C498.382 433.916 502.555 436.619 506.087 440.052C509.619 443.484 512.439 447.579 514.388 452.102C516.336 456.625 517.375 461.488 517.443 466.412Z" fill="#263238"/>
<path d="M517.444 466.309V466.412C517.488 476.293 513.629 485.792 506.708 492.845C499.787 499.897 490.362 503.933 480.482 504.075C470.602 504.217 461.065 500.454 453.944 493.603C446.823 486.752 442.693 477.368 442.453 467.49C442.453 467.49 442.453 467.421 442.453 467.398L517.444 466.309Z" fill="#263238"/>
<path d="M506.278 466.573C506.362 471.792 504.894 476.92 502.061 481.304C499.228 485.689 495.157 489.135 490.364 491.204C485.572 493.273 480.272 493.873 475.138 492.928C470.004 491.983 465.266 489.535 461.524 485.895C457.782 482.255 455.205 477.585 454.12 472.479C453.034 467.373 453.488 462.059 455.425 457.211C457.362 452.364 460.695 448.2 465 445.247C469.306 442.295 474.391 440.687 479.611 440.628C486.583 440.548 493.303 443.233 498.3 448.095C503.298 452.957 506.166 459.601 506.278 466.573Z" fill="#FAFAFA"/>
<path d="M479.61 440.628C486.588 440.539 493.317 443.22 498.322 448.083C503.327 452.946 506.2 459.595 506.312 466.572L453.665 467.329C453.576 460.351 456.257 453.622 461.12 448.617C465.983 443.612 472.632 440.739 479.61 440.628Z" fill="#E0E0E0"/>
<path d="M495.993 466.722C496.041 469.897 495.145 473.014 493.42 475.68C491.695 478.346 489.218 480.441 486.303 481.699C483.387 482.956 480.164 483.321 477.041 482.747C473.918 482.172 471.035 480.685 468.758 478.472C466.481 476.259 464.911 473.42 464.248 470.315C463.584 467.209 463.857 463.977 465.031 461.027C466.205 458.076 468.228 455.54 470.843 453.74C473.459 451.939 476.55 450.955 479.725 450.912C483.978 450.853 488.08 452.486 491.131 455.45C494.181 458.415 495.93 462.469 495.993 466.722Z" fill="#263238"/>
<path d="M426.608 451.898C426.872 452.001 446.362 448.848 446.362 448.848C447.417 450.228 448.761 451.36 450.3 452.166C451.839 452.972 453.535 453.432 455.27 453.514C463.697 453.915 471.952 454.294 479.094 454.661C482.279 454.806 485.278 456.206 487.436 458.553C489.595 460.9 490.738 464.005 490.616 467.192C490.486 470.228 489.221 473.105 487.069 475.252C484.918 477.399 482.039 478.659 479.002 478.782L437.477 480.411C430.598 480.686 421.564 476.535 417.299 471.239L426.608 451.898Z" fill="#455A64"/>
<path d="M528.634 435.296C528.634 435.296 530.422 398.758 496.073 391.134V386.456H375.762V397.623C375.762 397.623 393.418 418.89 387.651 436.546C381.884 454.202 380.084 456.036 380.084 456.036H311.605C306.206 448.436 303.196 439.399 302.96 430.08C302.593 414.591 309.037 388.084 313.84 371.151C318.209 355.742 320.972 342.867 320.972 342.867L300.438 335.988C300.438 335.988 262.421 385.688 260.873 388.486C259.325 391.283 253.994 397.795 255.278 412.08C256.562 426.365 290.682 470.459 299.681 475.435C308.681 480.41 316.81 480.72 324.835 481.97C331.852 483.047 383.684 482.325 397.247 482.119C401.961 482.093 406.584 480.811 410.638 478.404C414.696 475.951 417.746 471.881 421.105 465.197L428.248 451.221L528.634 435.296Z" fill="#455A64"/>
<path d="M519.427 432.797L534.583 456.495C535.017 457.157 535.227 457.942 535.181 458.732C535.136 459.523 534.837 460.278 534.329 460.886C533.822 461.493 533.132 461.922 532.362 462.108C531.593 462.294 530.784 462.227 530.054 461.918C528.169 461.085 526.449 459.92 524.976 458.479C518.039 451.875 505.68 434.506 505.68 434.506L519.427 432.797Z" fill="#455A64"/>
<path d="M410.753 437.028C410.736 436.911 410.709 436.796 410.672 436.684C410.596 436.447 410.493 436.114 410.363 435.686C409.998 434.406 409.734 433.099 409.572 431.777C409.044 426.881 409.835 421.933 411.865 417.446C413.243 414.356 415.13 411.519 417.448 409.054C420.116 406.243 423.212 403.871 426.62 402.026C430.398 399.986 434.442 398.481 438.635 397.554C443.155 396.578 447.769 396.101 452.393 396.133C456.996 396.169 461.591 396.506 466.15 397.142C470.587 397.749 474.852 398.483 478.865 399.435C485.998 400.944 492.873 403.486 499.272 406.978C503.568 409.365 507.496 412.362 510.932 415.875C512.147 417.125 513.007 418.168 513.592 418.879L514.245 419.693C514.314 419.788 514.39 419.876 514.475 419.957C513.455 418.455 512.304 417.047 511.035 415.749C507.631 412.165 503.708 409.112 499.398 406.692C492.991 403.128 486.091 400.536 478.922 398.999C474.898 398.07 470.633 397.325 466.185 396.706C461.589 396.054 456.954 395.709 452.312 395.674C447.664 395.641 443.027 396.126 438.486 397.119C434.251 398.083 430.169 399.626 426.356 401.705C422.902 403.579 419.767 405.99 417.07 408.847C414.73 411.351 412.834 414.236 411.463 417.377C409.429 421.919 408.664 426.927 409.251 431.869C409.433 433.198 409.729 434.51 410.133 435.79L410.489 436.776C410.572 436.865 410.66 436.949 410.753 437.028Z" fill="#263238"/>
<path d="M417.701 428.83C417.758 428.83 417.506 428.246 417.242 427.202C416.904 425.696 416.861 424.139 417.116 422.616C417.467 420.379 418.221 418.223 419.34 416.254C419.978 415.076 420.723 413.959 421.565 412.917C422.46 411.798 423.471 410.776 424.58 409.868C426.73 408.106 429.144 406.694 431.734 405.683C433.857 404.865 436.058 404.266 438.303 403.894C439.822 403.639 441.352 403.463 442.889 403.367C443.457 403.363 444.024 403.32 444.586 403.241C444.438 403.221 444.287 403.221 444.139 403.241C443.852 403.241 443.428 403.241 442.878 403.241C441.342 403.265 439.81 403.391 438.292 403.619C436.013 403.951 433.777 404.523 431.619 405.328C428.974 406.336 426.508 407.765 424.316 409.558C423.192 410.5 422.173 411.56 421.278 412.722C420.412 413.797 419.644 414.949 418.985 416.162C417.856 418.185 417.113 420.401 416.795 422.697C416.573 424.248 416.674 425.829 417.093 427.34C417.2 427.736 417.346 428.12 417.529 428.486C417.577 428.606 417.634 428.721 417.701 428.83Z" fill="#F5F5F5"/>
<g opacity="0.4">
<path opacity="0.4" d="M441.25 396.809C434.771 398.001 428.606 400.51 423.136 404.181C417.634 407.837 413.394 413.102 410.994 419.257C408.598 425.437 408.954 433.623 411.487 438.747L402.98 439.447C400.114 429.908 403.233 418.191 410.112 410.716C414.05 406.361 418.853 402.875 424.215 400.48C429.576 398.086 435.378 396.835 441.25 396.809Z" fill="#455A64"/>
</g>
<path d="M375.82 390.71C375.82 390.848 402.866 390.951 436.217 390.951C469.568 390.951 496.613 390.848 496.613 390.71C496.613 390.572 469.568 390.469 436.217 390.469C402.866 390.469 375.82 390.584 375.82 390.71Z" fill="#263238"/>
<path d="M375.762 386.456C374.542 384.902 373.786 383.034 373.583 381.068C373.4 378.041 374.73 374.258 378.02 374.258H419.569C421.17 374.258 422.756 374.573 424.235 375.187C425.715 375.8 427.059 376.698 428.19 377.831C429.322 378.964 430.22 380.309 430.831 381.789C431.443 383.269 431.757 384.855 431.756 386.456H375.762Z" fill="#455A64"/>
<path d="M320.971 342.844L328.205 327.78C329.171 325.712 329.332 323.359 328.655 321.18C327.979 319 326.515 317.151 324.548 315.994L302.949 303.107C301.819 302.432 300.527 302.075 299.211 302.075H294.545L292.665 332.526L299.876 335.346L295.29 342.753L320.971 342.844Z" fill="#455A64"/>
<path d="M294.477 303.176C294.477 303.176 287.082 304.873 286.153 316.269C285.224 327.665 292.665 331.173 292.665 331.173L294.477 303.176Z" fill="white"/>
<path d="M294.476 303.176C294.425 303.375 294.398 303.579 294.395 303.784L294.258 305.423C294.132 306.914 293.983 308.932 293.788 311.408C293.398 316.452 292.882 323.389 292.378 331.196L292.802 330.944C292.008 330.509 291.278 329.965 290.635 329.327C289.17 327.91 288.055 326.171 287.379 324.249C286.739 322.455 286.394 320.569 286.359 318.665C286.239 315.418 286.863 312.187 288.182 309.218C289.105 307.234 290.542 305.532 292.343 304.288C293.018 303.842 293.732 303.458 294.476 303.142C294.264 303.156 294.055 303.202 293.857 303.279C293.285 303.483 292.736 303.744 292.217 304.059C290.311 305.258 288.781 306.971 287.803 309C286.392 312.014 285.709 315.316 285.808 318.642C285.829 320.596 286.174 322.533 286.829 324.375C287.547 326.387 288.725 328.205 290.268 329.683C290.949 330.359 291.721 330.938 292.561 331.403L292.962 331.609V331.15C293.467 323.205 293.857 316.131 294.109 311.098C294.223 308.656 294.327 306.662 294.395 305.183L294.464 303.612C294.479 303.467 294.483 303.322 294.476 303.176Z" fill="#263238"/>
<path d="M321.087 322.242C321.087 322.242 340.772 331.575 343.179 333.053C344.842 334.12 346.275 335.977 344.968 339.256C342.732 344.828 333.503 339.588 333.503 339.588L315.159 330.417C315.159 330.417 308.12 327.08 310.722 322.93C313.68 318.321 321.087 322.242 321.087 322.242Z" fill="#263238"/>
<path d="M323.574 310.02C320.351 310.02 317.738 305.416 317.738 299.737C317.738 294.057 320.351 289.453 323.574 289.453C326.796 289.453 329.409 294.057 329.409 299.737C329.409 305.416 326.796 310.02 323.574 310.02Z" fill="#263238"/>
<path d="M322.622 306.81L319.412 317.92C318.826 317.626 318.359 317.14 318.087 316.544C317.816 315.947 317.758 315.276 317.921 314.641C318.724 310.835 319.183 308.129 320.065 304.793C320.169 304.46 322.622 306.81 322.622 306.81Z" fill="#263238"/>
<g opacity="0.3">
<path opacity="0.3" d="M386.067 441.293C386.388 440.375 386.709 439.447 387.018 438.484C387.328 437.521 387.637 436.661 387.878 435.767C388.254 434.395 388.522 432.995 388.681 431.582C394.092 453.606 385.838 469.118 371.644 470.207C350.927 471.8 325.659 472.958 315.467 470.276C296.836 465.392 290.003 449.857 288.375 447.346C286.747 444.835 271.923 417.698 281.003 391.627C290.083 365.556 305.905 337.857 305.916 337.857L320.993 342.89C320.993 342.89 318.23 355.765 313.861 371.174C309.058 388.107 302.615 414.614 302.981 430.103C303.217 439.422 306.227 448.459 311.626 456.059H380.082C380.082 456.059 381.55 454.592 386.067 441.338" fill="#455A64"/>
</g>
<path d="M531.373 429.564L530.891 424.336L405.925 438.736C404.254 438.934 402.641 439.47 401.185 440.313C399.729 441.156 398.46 442.287 397.456 443.637C396.453 444.987 395.736 446.528 395.348 448.166C394.961 449.803 394.912 451.502 395.205 453.159L395.767 456.323L525.101 437.521C526.967 437.25 528.657 436.273 529.824 434.793C530.99 433.313 531.545 431.441 531.373 429.564Z" fill="#455A64"/>
<g opacity="0.3">
<path opacity="0.3" d="M531.373 429.564L530.892 424.336L405.926 438.736C404.255 438.934 402.642 439.47 401.186 440.313C399.73 441.156 398.461 442.287 397.457 443.637C396.454 444.987 395.737 446.528 395.349 448.166C394.962 449.803 394.913 451.502 395.206 453.159L395.768 456.323L525.102 437.521C526.968 437.25 528.658 436.273 529.825 434.793C530.991 433.313 531.546 431.441 531.373 429.564Z" fill="#455A64"/>
</g>
<g opacity="0.3">
<path opacity="0.3" d="M288.354 464.532C288.354 464.532 260.838 434.276 255.163 410.475C252.311 410.461 249.463 410.672 246.645 411.106C246.645 411.106 262.925 455.337 288.354 464.532Z" fill="#455A64"/>
</g>
<path d="M255.566 399.813C255.491 400.063 255.441 400.321 255.417 400.581C255.348 401.086 255.199 401.819 255.096 402.794C254.844 405.529 254.917 408.285 255.313 411.003C255.95 415.038 257.174 418.959 258.948 422.639C261.124 427.112 263.555 431.457 266.228 435.652C271.023 443.321 276.408 450.604 282.336 457.435C284.572 460.083 286.417 462.193 287.713 463.638L289.192 465.3C289.358 465.503 289.543 465.691 289.742 465.862C289.605 465.642 289.447 465.434 289.272 465.243L287.851 463.523L282.588 457.217C276.757 450.348 271.427 443.068 266.641 435.434C263.977 431.249 261.54 426.924 259.338 422.479C257.572 418.851 256.329 414.991 255.646 411.014C255.217 408.319 255.097 405.584 255.29 402.863C255.348 401.9 255.474 401.154 255.508 400.65C255.551 400.373 255.57 400.093 255.566 399.813Z" fill="#263238"/>
<path d="M303.133 464.314C306.176 461.779 309.009 459.004 311.605 456.013C310.034 457.22 308.562 458.55 307.203 459.992C305.731 461.319 304.369 462.764 303.133 464.314Z" fill="#263238"/>
<path d="M384.784 463.385C384.346 461.971 383.663 460.644 382.766 459.464C381.995 458.203 381.019 457.079 379.877 456.14C379.763 456.231 381.024 457.745 382.365 459.728C383.706 461.712 384.658 463.443 384.784 463.385Z" fill="#263238"/>
<path d="M437.648 480.858C436.145 479.484 434.879 477.873 433.899 476.088C432.871 474.138 432.243 472.002 432.054 469.806C431.774 467.128 432.241 464.426 433.402 461.998C434.564 459.57 436.375 457.51 438.634 456.048C440.458 454.808 442.513 453.95 444.676 453.525C446.679 453.16 448.729 453.133 450.741 453.445C450.741 453.445 450.604 453.388 450.328 453.319C449.952 453.215 449.569 453.138 449.182 453.09C447.68 452.882 446.155 452.917 444.665 453.193C442.444 453.586 440.329 454.432 438.451 455.681C436.098 457.17 434.214 459.293 433.015 461.806C431.816 464.319 431.352 467.12 431.675 469.886C431.886 472.133 432.562 474.311 433.659 476.283C434.383 477.612 435.312 478.819 436.41 479.86C436.789 480.238 437.144 480.468 437.35 480.651C437.441 480.731 437.541 480.801 437.648 480.858Z" fill="#263238"/>
<path d="M483.289 471.273C483.599 469.826 483.749 468.35 483.736 466.87C483.889 465.395 483.889 463.909 483.736 462.434C483.426 463.884 483.276 465.364 483.289 466.848C483.131 468.318 483.131 469.802 483.289 471.273Z" fill="#263238"/>
<path d="M479.976 471.285C480.397 469.849 480.666 468.374 480.779 466.882C481.042 465.411 481.153 463.916 481.111 462.422C480.683 463.856 480.414 465.332 480.309 466.825C480.032 468.294 479.921 469.79 479.976 471.285Z" fill="#263238"/>
<path d="M428.431 386.457C428.431 386.583 443.622 386.697 462.367 386.697C481.112 386.697 496.314 386.583 496.314 386.457C496.314 386.33 481.112 386.216 462.367 386.216C443.622 386.216 428.431 386.319 428.431 386.457Z" fill="#263238"/>
<path d="M507.998 492.414C508.146 492.296 508.281 492.161 508.399 492.013C508.64 491.738 509.029 491.337 509.465 490.775C510.75 489.221 511.901 487.56 512.905 485.81C516.221 480.015 517.953 473.448 517.926 466.77C517.9 460.093 516.117 453.54 512.755 447.77C511.753 446.027 510.603 444.374 509.316 442.829C508.88 442.267 508.479 441.877 508.238 441.602C508.115 441.455 507.977 441.32 507.826 441.201C507.922 441.364 508.033 441.517 508.158 441.66C508.387 441.958 508.754 442.37 509.167 442.944C510.387 444.519 511.483 446.186 512.446 447.931C515.689 453.68 517.406 460.163 517.434 466.764C517.462 473.364 515.8 479.862 512.606 485.639C511.652 487.391 510.567 489.07 509.362 490.66C508.961 491.245 508.594 491.646 508.376 491.956C508.232 492.093 508.105 492.247 507.998 492.414Z" fill="#455A64"/>
<path d="M379.866 477.51C379.866 477.51 378.811 502.033 378.789 503.214L373.584 507.158L361.098 504.051L362.245 476.948L379.866 477.51Z" fill="#FFBE9D"/>
<path d="M345.471 261.742L332.412 268.724L310.572 252.8L304.22 263.76C304.22 263.76 317.519 276.589 322.243 280.957C326.966 285.325 330.062 287.653 333.513 286.976C336.964 286.3 356.179 275.626 356.179 275.626C356.179 275.626 350.584 261.972 345.471 261.742Z" fill="#FFBE9D"/>
<path d="M332.345 273.585C332.345 273.585 332.265 273.666 332.219 273.803V273.918H332.505V273.815V273.471C332.585 272.816 332.627 272.158 332.631 271.499C332.74 270.556 332.658 269.601 332.391 268.69C332.069 269.585 331.948 270.54 332.035 271.487C332.035 272.255 332.035 272.955 332.093 273.471V273.815V273.918C332.689 273.918 332.265 273.918 332.391 273.918V273.792C332.425 273.666 332.379 273.585 332.345 273.585Z" fill="#EB996E"/>
<path d="M307.855 266.741C307.419 266.879 303.349 262.488 303.349 262.488C303.349 262.488 295.725 262.35 293.902 261.341C292.079 260.332 289.316 256.572 289.316 256.572L292.996 245.359C296.4 245.582 299.788 246.003 303.143 246.62C305.573 247.297 311.386 253.384 311.386 253.384L313.885 257.271C313.885 257.271 314.665 264.643 307.855 266.741Z" fill="#FFBE9D"/>
<path d="M294.969 261.971C294.035 261.905 293.104 261.786 292.183 261.616C290.349 261.307 288.457 261.146 288.514 259.323C288.509 259.021 288.569 258.722 288.69 258.445C288.81 258.168 288.989 257.92 289.214 257.718C289.214 257.718 287.861 257.156 287.872 256.136C287.875 255.839 287.949 255.547 288.086 255.284C288.224 255.021 288.421 254.794 288.663 254.623C288.663 254.623 286.795 253.763 286.737 252.249C286.73 251.69 286.878 251.14 287.166 250.66C287.453 250.18 287.869 249.789 288.365 249.532C288.365 249.532 282.633 247.893 282.174 247.709C280.546 247.044 277.439 245.565 278.735 244.35C279.205 243.903 279.388 243.41 282.667 243.811C285.648 244.167 290.337 245.267 290.337 245.267C290.337 245.267 294.35 245.462 296.459 245.68C299.074 245.919 301.663 246.383 304.198 247.067C306.904 248.317 309.266 251.871 309.266 251.871L303.315 262.487L294.969 261.971Z" fill="#FFBE9D"/>
<path d="M289.661 257.672C290.197 257.599 290.737 257.569 291.278 257.581H293.032C293.379 257.553 293.728 257.553 294.075 257.581C294.472 257.631 294.842 257.808 295.13 258.085C295.287 258.226 295.403 258.407 295.463 258.61C295.524 258.812 295.528 259.027 295.474 259.231C295.357 259.59 295.106 259.89 294.774 260.068C294.503 260.236 294.215 260.374 293.915 260.481L293.158 260.768C292.676 260.94 292.298 261.054 292.011 261.123C291.725 261.192 291.587 261.226 291.587 261.203C291.587 261.181 292.161 260.974 293.078 260.607C293.616 260.404 294.137 260.159 294.637 259.874C294.914 259.718 295.122 259.464 295.222 259.163C295.259 259.003 295.252 258.837 295.202 258.681C295.151 258.526 295.059 258.387 294.935 258.28C294.685 258.042 294.37 257.886 294.029 257.833C293.694 257.805 293.356 257.805 293.02 257.833H291.266C290.728 257.822 290.191 257.768 289.661 257.672Z" fill="#EB996E"/>
<path d="M295.921 249.842C295.324 249.588 294.798 249.195 294.384 248.695C293.902 248.266 293.535 247.722 293.318 247.113C293.375 247.113 293.846 247.778 294.568 248.523C295.29 249.269 295.967 249.785 295.921 249.842Z" fill="#EB996E"/>
<path d="M300.759 247.194C299.24 247.559 297.858 248.355 296.78 249.487C295.714 250.615 294.825 251.898 294.144 253.293C293.57 254.439 293.077 255.758 293.708 256.824C294.092 257.346 294.654 257.709 295.288 257.844C295.922 257.979 296.584 257.878 297.147 257.558C298.248 256.895 299.113 255.905 299.624 254.726C300.129 253.551 300.776 252.442 301.55 251.424" fill="#FFBE9D"/>
<path d="M301.469 251.413C301.469 251.413 301.262 251.676 300.93 252.204C300.51 252.949 300.127 253.714 299.783 254.497C299.524 255.05 299.217 255.579 298.866 256.079C298.465 256.666 297.941 257.159 297.33 257.523C296.635 257.919 295.816 258.038 295.037 257.856C294.607 257.759 294.212 257.55 293.891 257.248C293.581 256.936 293.377 256.536 293.306 256.102C293.225 255.25 293.396 254.392 293.799 253.637C294.143 252.944 294.526 252.27 294.945 251.619C295.632 250.505 296.5 249.513 297.513 248.684C298.199 248.128 298.974 247.694 299.806 247.4C300.033 247.318 300.268 247.256 300.506 247.217C300.666 247.217 300.746 247.217 300.746 247.217C300.746 247.217 300.414 247.308 299.841 247.526C299.035 247.852 298.285 248.301 297.617 248.856C296.633 249.688 295.792 250.675 295.129 251.78C294.731 252.425 294.368 253.091 294.04 253.774C293.662 254.476 293.498 255.274 293.57 256.067C293.628 256.455 293.804 256.815 294.074 257.099C294.353 257.363 294.697 257.549 295.071 257.638C295.793 257.819 296.556 257.717 297.204 257.351C297.787 257.005 298.291 256.54 298.683 255.987C299.033 255.501 299.344 254.987 299.611 254.451C299.988 253.661 300.413 252.895 300.884 252.158C301.056 251.906 301.217 251.722 301.32 251.596C301.423 251.47 301.469 251.401 301.469 251.413Z" fill="#EB996E"/>
<path d="M289.833 257.672C292.184 257.674 294.534 257.797 296.873 258.039C297.541 258.162 298.23 258.103 298.867 257.867C299.36 257.626 299.544 256.388 299.67 255.861L291.048 254.52" fill="#FFBE9D"/>
<path d="M291.049 254.519C291.272 254.518 291.494 254.537 291.714 254.577L293.548 254.829L299.693 255.735H299.819V255.872C299.728 256.262 299.647 256.698 299.51 257.122C299.455 257.299 299.378 257.468 299.281 257.626C299.233 257.706 299.175 257.78 299.109 257.844C299.034 257.911 298.949 257.965 298.856 258.005C298.531 258.132 298.185 258.194 297.836 258.188C297.16 258.188 296.54 258.096 295.944 258.051C294.798 257.947 293.651 257.856 292.78 257.798C291.909 257.741 291.152 257.718 290.636 257.695C290.377 257.714 290.116 257.714 289.856 257.695C290.114 257.652 290.375 257.633 290.636 257.638C291.152 257.638 291.886 257.638 292.791 257.638C293.697 257.638 294.775 257.741 295.967 257.833C296.563 257.833 297.194 257.959 297.824 257.947C298.143 257.955 298.459 257.897 298.753 257.775C299.028 257.684 299.154 257.363 299.269 257.053C299.384 256.744 299.475 256.228 299.567 255.826L299.67 255.975C297.24 255.597 295.084 255.242 293.548 254.978L291.725 254.657C291.496 254.63 291.27 254.584 291.049 254.519Z" fill="#EB996E"/>
<path d="M288.538 254.038L297.515 255.758C298.144 255.916 298.795 255.966 299.441 255.907C299.762 255.874 300.071 255.763 300.339 255.583C300.607 255.403 300.826 255.16 300.977 254.875C301.109 254.454 301.099 254.001 300.948 253.586C300.796 253.172 300.513 252.819 300.14 252.582C299.373 252.125 298.517 251.836 297.63 251.733C294.901 251.197 292.218 250.449 289.604 249.498" fill="#FFBE9D"/>
<path d="M289.627 249.464C289.718 249.476 289.806 249.499 289.891 249.532L290.636 249.773C291.278 249.968 292.207 250.266 293.365 250.576C294.523 250.885 295.921 251.241 297.481 251.55C298.323 251.66 299.142 251.9 299.911 252.261C300.324 252.477 300.669 252.802 300.909 253.201C301.174 253.616 301.28 254.113 301.207 254.6C301.151 254.842 301.044 255.069 300.894 255.267C300.744 255.464 300.553 255.628 300.335 255.746C299.928 255.969 299.47 256.083 299.005 256.079C298.168 256.017 297.336 255.891 296.518 255.7L292.356 254.875L289.558 254.302L288.802 254.13L288.538 254.05C288.629 254.037 288.722 254.037 288.813 254.05L289.581 254.176L292.39 254.669L296.563 255.448C297.367 255.632 298.183 255.751 299.005 255.804C299.426 255.81 299.84 255.707 300.209 255.506C300.395 255.405 300.558 255.267 300.687 255.099C300.815 254.931 300.906 254.737 300.954 254.531C301.017 254.107 300.923 253.676 300.691 253.316C300.473 252.958 300.165 252.666 299.796 252.467C299.05 252.115 298.253 251.879 297.435 251.768C295.876 251.447 294.477 251.08 293.319 250.748C292.161 250.415 291.232 250.083 290.602 249.853L289.879 249.567L289.627 249.464Z" fill="#EB996E"/>
<path d="M306.491 256.239C306.491 256.239 306.365 256.503 306.021 256.812C305.56 257.197 305.02 257.475 304.439 257.627C303.86 257.784 303.252 257.807 302.662 257.695C302.215 257.604 301.963 257.477 301.974 257.443C302.77 257.57 303.582 257.55 304.37 257.386C305.145 257.145 305.866 256.756 306.491 256.239Z" fill="#EB996E"/>
<path d="M355.068 319.754C355.068 319.754 333.285 323.779 331.772 324.191C330.259 324.604 324.033 327.539 323.747 329.419C323.58 331.893 323.58 334.375 323.747 336.848C323.747 336.848 324.893 337.754 325.558 335.943C326.018 334.181 326.215 332.362 326.143 330.543L329.582 329.213L327.702 332.561L327.392 340.403C327.392 340.403 329.8 340.185 330.27 338.304C330.566 337.003 330.719 335.673 330.729 334.338L333.251 332.205L331.359 334.762L330.729 340.403C330.729 340.403 332.563 340.999 333.148 339.749C333.567 338.12 333.775 336.444 333.767 334.762L340.875 332.274L345.576 334.899L350.677 332.102C351.391 331.707 352.009 331.161 352.489 330.501C352.968 329.842 353.297 329.085 353.452 328.284L355.068 319.754Z" fill="#FFBE9D"/>
<path d="M398.565 211.526L397.843 249.532C397.787 252.522 396.6 255.38 394.522 257.53C392.444 259.681 389.628 260.964 386.642 261.123C385.026 261.206 383.411 260.957 381.895 260.391C380.379 259.826 378.996 258.955 377.83 257.833C376.664 256.711 375.741 255.362 375.117 253.869C374.493 252.377 374.182 250.772 374.203 249.154C374.203 245.531 374.317 242.573 374.317 242.573C374.317 242.573 365.077 241.622 364.481 232.461C364.148 227.164 364.481 215.103 364.744 205.863C364.845 202.839 366.08 199.964 368.205 197.809C370.329 195.655 373.187 194.38 376.209 194.238L381.747 193.951C384.013 193.974 386.252 194.45 388.332 195.351C390.411 196.252 392.29 197.56 393.857 199.197C395.424 200.835 396.648 202.769 397.456 204.886C398.265 207.004 398.642 209.261 398.565 211.526Z" fill="#FFBE9D"/>
<path d="M374.317 242.482C378.55 242.247 382.627 240.807 386.068 238.331C386.068 238.331 383.466 245.21 374.271 244.797L374.317 242.482Z" fill="#EB996E"/>
<path d="M366.921 214.473C367.082 214.645 368.068 213.854 369.455 213.785C370.842 213.716 371.931 214.37 372.069 214.186C372.207 214.003 371.966 213.808 371.496 213.498C370.862 213.114 370.127 212.93 369.386 212.971C368.653 213.006 367.949 213.275 367.38 213.739C366.967 214.083 366.83 214.404 366.921 214.473Z" fill="#263238"/>
<path d="M380.485 217.488C380.497 217.831 380.643 218.155 380.892 218.391C381.141 218.627 381.472 218.756 381.815 218.749C381.982 218.752 382.148 218.722 382.304 218.661C382.459 218.6 382.601 218.509 382.721 218.393C382.842 218.277 382.938 218.138 383.005 217.985C383.071 217.832 383.107 217.667 383.11 217.5C383.098 217.157 382.952 216.833 382.703 216.597C382.455 216.361 382.123 216.232 381.78 216.239C381.613 216.234 381.446 216.263 381.29 216.323C381.134 216.384 380.991 216.475 380.87 216.591C380.75 216.708 380.654 216.847 380.587 217.001C380.521 217.155 380.486 217.321 380.485 217.488Z" fill="#263238"/>
<path d="M367.656 217.488C367.668 217.831 367.814 218.155 368.063 218.391C368.311 218.627 368.643 218.756 368.986 218.749C369.153 218.754 369.32 218.725 369.476 218.664C369.632 218.604 369.775 218.513 369.896 218.396C370.016 218.28 370.113 218.141 370.179 217.987C370.245 217.833 370.28 217.667 370.281 217.5C370.269 217.157 370.123 216.833 369.874 216.597C369.626 216.361 369.294 216.232 368.951 216.239C368.784 216.234 368.617 216.263 368.461 216.323C368.305 216.384 368.162 216.475 368.041 216.591C367.921 216.708 367.825 216.847 367.758 217.001C367.692 217.155 367.657 217.321 367.656 217.488Z" fill="#263238"/>
<path d="M380.532 213.969C380.704 214.129 381.678 213.338 383.065 213.269C384.453 213.2 385.542 213.854 385.691 213.67C385.84 213.487 385.576 213.292 385.106 212.994C384.477 212.598 383.739 212.41 382.997 212.455C382.263 212.49 381.56 212.76 380.99 213.223C380.577 213.579 380.451 213.888 380.532 213.969Z" fill="#263238"/>
<path d="M376.084 225.181C375.334 224.988 374.564 224.888 373.791 224.883C373.435 224.883 373.08 224.814 373.011 224.573C372.966 224.204 373.03 223.83 373.194 223.496L374.135 220.698C375.001 218.326 375.676 215.887 376.152 213.407C375.097 215.703 374.227 218.08 373.55 220.515C373.24 221.501 372.954 222.43 372.667 223.324C372.464 223.77 372.427 224.274 372.564 224.745C372.622 224.871 372.707 224.982 372.815 225.07C372.922 225.157 373.048 225.219 373.183 225.25C373.385 225.277 373.589 225.277 373.791 225.25C374.555 225.321 375.325 225.298 376.084 225.181Z" fill="#263238"/>
<path d="M380.291 225.938C380.05 225.938 380.13 227.474 378.881 228.621C377.631 229.767 375.992 229.687 375.992 229.905C375.992 230.122 376.37 230.18 377.058 230.168C377.954 230.131 378.81 229.783 379.477 229.182C380.115 228.583 380.5 227.763 380.555 226.889C380.578 226.293 380.394 225.926 380.291 225.938Z" fill="#263238"/>
<path d="M380.36 208.855C380.52 209.222 381.907 208.97 383.581 209.084C385.255 209.199 386.596 209.577 386.803 209.222C386.895 209.061 386.642 208.706 386.081 208.362C385.341 207.939 384.512 207.696 383.662 207.651C382.81 207.593 381.957 207.738 381.174 208.075C380.577 208.351 380.291 208.672 380.36 208.855Z" fill="#263238"/>
<path d="M367.346 209.383C367.61 209.692 368.561 209.302 369.731 209.234C370.9 209.165 371.898 209.337 372.104 208.981C372.196 208.821 372.024 208.511 371.577 208.225C370.979 207.891 370.295 207.743 369.613 207.801C368.931 207.858 368.281 208.117 367.747 208.546C367.346 208.89 367.254 209.234 367.346 209.383Z" fill="#263238"/>
<path d="M395.825 218.52C395.974 218.44 402.027 216.33 402.153 222.602C402.28 228.873 395.917 227.715 395.917 227.577C395.917 227.44 395.825 218.52 395.825 218.52Z" fill="#FFBE9D"/>
<path d="M397.809 225.112C397.809 225.112 397.912 225.192 398.107 225.273C398.369 225.372 398.659 225.372 398.921 225.273C399.31 225 399.621 224.63 399.822 224.199C400.023 223.768 400.108 223.293 400.068 222.819C400.07 222.282 399.957 221.75 399.735 221.26C399.671 221.064 399.561 220.886 399.413 220.743C399.265 220.599 399.084 220.493 398.887 220.435C398.762 220.405 398.631 220.419 398.516 220.476C398.401 220.532 398.309 220.627 398.256 220.744C398.176 220.928 398.256 221.054 398.176 221.065C398.096 221.077 398.038 220.962 398.084 220.698C398.12 220.542 398.204 220.402 398.325 220.297C398.499 220.166 398.716 220.104 398.933 220.125C399.188 220.176 399.426 220.29 399.626 220.456C399.826 220.622 399.982 220.835 400.079 221.077C400.362 221.613 400.504 222.213 400.492 222.819C400.534 223.378 400.411 223.937 400.138 224.426C399.865 224.916 399.453 225.314 398.956 225.571C398.786 225.619 398.609 225.631 398.435 225.605C398.261 225.579 398.095 225.517 397.947 225.422C397.821 225.284 397.786 225.124 397.809 225.112Z" fill="#EB996E"/>
<path d="M399.298 218.119C398.7 218.114 398.112 218.269 397.596 218.57C397.079 218.871 396.653 219.305 396.363 219.827C396.007 220.744 395.961 221.765 395.606 222.682C395.468 223.154 395.177 223.568 394.779 223.856C394.38 224.145 393.897 224.292 393.405 224.275C393.074 224.191 392.771 224.02 392.527 223.78C392.284 223.54 392.108 223.241 392.017 222.911C391.849 222.252 391.806 221.568 391.891 220.893C392.121 217.947 392.579 215.012 392.545 212.054C392.631 209.08 391.833 206.147 390.252 203.627C389.447 202.383 388.322 201.379 386.994 200.721C385.666 200.063 384.185 199.776 382.708 199.89C380.77 200.142 379.039 201.254 377.113 201.632C375.977 201.835 374.809 201.778 373.697 201.467C372.586 201.155 371.559 200.596 370.693 199.832C370.464 199.638 369.455 199.041 369.455 199.041C369.445 198.343 369.641 197.658 370.016 197.069C373.674 193.32 380.541 191.968 385.677 192.988C388.288 193.486 390.758 194.547 392.917 196.097C395.075 197.648 396.869 199.65 398.174 201.965C400.605 206.608 400.295 213.258 399.32 218.119" fill="#263238"/>
<path d="M372.288 198.032C375.728 198.159 382.389 199.443 385.129 201.575C385.45 201.827 385.805 202.24 385.587 202.595C385.369 202.951 385.048 202.871 384.739 202.859C381.558 203.022 378.401 203.502 375.315 204.292C373.351 204.986 371.274 205.301 369.193 205.221C368.153 205.164 367.146 204.838 366.27 204.275C365.393 203.713 364.678 202.933 364.194 202.011L363.311 202.343C364.315 200.919 365.667 199.774 367.239 199.02C368.81 198.265 370.548 197.925 372.288 198.032Z" fill="#263238"/>
<path d="M365.1 202.252C366.97 200.492 369.367 199.396 371.922 199.133C379.855 198.411 392.879 200.795 399.781 214.427C400.533 212.068 401.002 209.628 401.18 207.158C401.18 205.29 400.033 194.18 388.568 190.741C388.545 190.741 371.279 184.24 365.1 202.252Z" fill="#455A64"/>
<g opacity="0.3">
<path opacity="0.3" d="M365.099 202.252C367.088 200.127 369.828 198.864 372.735 198.732C379.843 198.388 393.279 201.575 399.78 214.427C400.532 212.068 401.001 209.628 401.179 207.158C401.179 205.29 400.032 194.18 388.567 190.741C388.544 190.741 371.279 184.24 365.099 202.252Z" fill="#455A64"/>
</g>
<path d="M398.703 212.49C395.264 206.757 390.105 202.802 384.544 199.362C378.984 195.923 369.823 192.564 363.506 190.913C361.636 190.31 359.658 190.114 357.705 190.34C356.732 190.467 355.815 190.865 355.059 191.49C354.302 192.114 353.737 192.94 353.429 193.871C352.833 196.255 357.075 199.901 359.069 201.334C360.916 202.564 362.829 203.69 364.802 204.705C364.802 204.705 365.031 200.44 372.093 199.511C381.712 198.25 399.001 212.73 398.703 212.49Z" fill="#455A64"/>
<path d="M385.599 194.891C383.504 193.905 381.315 193.137 379.064 192.598C376.789 192.247 374.485 192.12 372.185 192.22C372.832 191.984 373.514 191.86 374.203 191.853C375.866 191.72 377.54 191.812 379.178 192.128C380.811 192.447 382.392 192.987 383.879 193.733C384.51 194.025 385.091 194.416 385.599 194.891Z" fill="white"/>
<path d="M360.938 502.526L360.869 503.604C360.869 503.604 341.379 510.104 340.932 513.555L378.72 515L378.949 502.927C376.082 504.108 373.002 504.682 369.902 504.613C366.802 504.544 363.75 503.833 360.938 502.526Z" fill="#455A64"/>
<g opacity="0.6">
<path opacity="0.6" d="M378.719 515L378.776 512.099L342.571 511.767C342.571 511.767 340.851 512.409 340.965 513.555L378.719 515Z" fill="white"/>
</g>
<path d="M360.732 503.696C360.732 503.867 361.637 503.982 362.509 504.59C363.38 505.197 363.816 505.954 363.999 505.897C364.182 505.839 363.999 504.75 362.853 504.085C361.706 503.42 360.697 503.535 360.732 503.696Z" fill="#263238"/>
<path d="M356.673 505.117C356.615 505.289 357.395 505.61 357.98 506.39C358.565 507.169 358.691 507.961 358.874 507.961C359.057 507.961 359.241 506.963 358.496 506.011C357.751 505.06 356.684 504.945 356.673 505.117Z" fill="#263238"/>
<path d="M354.138 509.611C354.31 509.611 354.62 508.775 354.207 507.789C353.794 506.803 352.946 506.39 352.866 506.527C352.785 506.665 353.278 507.215 353.611 508.029C353.943 508.843 353.955 509.611 354.138 509.611Z" fill="#263238"/>
<path d="M357.912 418.134L364.309 396.809L372.827 369.661L372.357 355.685L386.62 345.86C395.94 346.02 423.101 344.415 423.101 344.415C423.101 344.415 422.401 358.586 421.003 368.789C420.719 370.814 419.969 372.744 418.813 374.43L406.305 392.67L384.797 432.797C384.797 432.797 383.364 447.128 382.767 459.51C382.102 473.383 379.867 498.491 379.867 498.491L357.74 499.018L356.353 443.437C355.791 435.09 355.172 426.044 357.912 418.134Z" fill="#263238"/>
<path d="M344.211 417.457C341.666 419.521 339.384 447.575 343.58 445.535L338.593 450.247L325.248 447.954L323.402 418.478L344.211 417.457Z" fill="#FFBE9D"/>
<path d="M381.929 333.615C381.929 333.615 326.646 348.657 320.914 360.558C318.604 364.454 317.525 368.958 317.818 373.478C318.151 381.504 322.714 439.206 322.714 439.206L343.591 437.83L345.597 416.54L345.941 384.313L344.485 380.644C346.083 381.013 347.746 380.993 349.335 380.587C351.708 379.887 387.731 368.984 387.731 368.984L401.798 346.811L381.929 333.615Z" fill="#263238"/>
<path d="M324.926 446.337V447.484C324.926 447.484 305.345 456.231 305.345 460.003L344.795 458.352L343.717 445.248C340.847 446.768 337.683 447.652 334.44 447.84C331.198 448.028 327.953 447.515 324.926 446.337Z" fill="#455A64"/>
<g opacity="0.6">
<path opacity="0.6" d="M344.761 458.352L344.509 455.199L306.778 457.94C306.778 457.94 305.058 458.776 305.31 460.003L344.761 458.352Z" fill="white"/>
</g>
<path d="M324.835 447.633C324.835 447.828 325.821 447.873 326.796 448.447C327.77 449.02 328.309 449.822 328.481 449.731C328.653 449.639 328.321 448.584 327.128 447.873C325.936 447.163 324.778 447.449 324.835 447.633Z" fill="#263238"/>
<path d="M320.764 449.513C320.764 449.708 321.567 449.995 322.266 450.786C322.966 451.577 323.172 452.425 323.413 452.414C323.654 452.402 323.677 451.267 322.805 450.338C321.934 449.41 320.753 449.33 320.764 449.513Z" fill="#263238"/>
<path d="M318.621 454.58C318.793 454.58 319.023 453.64 318.484 452.608C317.945 451.577 317.028 451.187 316.948 451.347C316.867 451.508 317.452 452.058 317.888 452.907C318.323 453.755 318.427 454.58 318.621 454.58Z" fill="#263238"/>
<path d="M335.658 369.936C336.32 370.242 336.931 370.648 337.47 371.14C338.836 372.25 340.064 373.52 341.127 374.923C342.191 376.338 343.076 377.878 343.764 379.509C344.094 380.161 344.319 380.861 344.429 381.584C343.378 379.375 342.143 377.258 340.737 375.255C339.199 373.341 337.5 371.561 335.658 369.936Z" fill="#455A64"/>
<path d="M340.14 365.556C340.656 366.185 341.08 366.884 341.401 367.631C343.149 371.148 344.145 374.99 344.325 378.913C344.397 379.72 344.362 380.533 344.222 381.332C344.085 380.54 344.005 379.739 343.981 378.936C343.802 377.002 343.472 375.085 342.995 373.203C342.513 371.334 341.884 369.505 341.115 367.734C340.746 367.029 340.421 366.301 340.14 365.556Z" fill="#455A64"/>
<path d="M377.174 357.37C377.025 357.37 374.525 364.249 371.602 372.733C368.678 381.217 366.431 388.233 366.592 388.291C366.752 388.348 369.24 381.469 372.163 372.928C375.087 364.387 377.334 357.427 377.174 357.37Z" fill="#455A64"/>
<path d="M368.745 255.918L359.722 252.295L336.185 265.079L345.793 287.068L366.509 276.784L368.745 255.918Z" fill="#455A64"/>
<path d="M359.723 252.295L374.031 246.884C374.031 246.884 377.161 253.499 384.006 251.47C390.85 249.441 398.394 243.341 398.394 243.341C398.394 243.341 411.406 248.5 415.373 250.851C419.34 253.201 421.484 314.182 421.484 314.182L422.562 337.777L423.204 342.225C423.478 344.355 423.619 346.499 423.628 348.646C399.38 354.091 375.407 348.325 362.555 341.193C362.555 341.193 360.858 339.863 361.592 336.825C362.326 333.787 363.885 333.26 363.885 333.26L363.564 306.593L361.179 279.318L359.723 252.295Z" fill="#455A64"/>
<path d="M346.916 321.268L379.109 307.946L399.058 263.772L416.806 271.224C416.806 271.224 397.751 319.124 390.356 323.102C382.962 327.08 352.465 328.915 352.465 328.915L346.916 321.268Z" fill="#FFBE9D"/>
<path d="M415.407 250.851C415.407 250.851 422.114 254.21 422.103 267.05C422.103 278.206 418.812 295.988 418.812 295.988L387.215 284.993L396.983 262.293C399.276 256.881 404.366 246.93 415.407 250.851Z" fill="#455A64"/>
<path d="M415.165 294.727C414.995 294.637 414.819 294.561 414.638 294.497L413.09 293.901L407.277 291.792L387.271 284.718L387.443 285.085C388.441 282.081 389.53 278.871 390.722 275.603C392.602 270.456 394.563 265.629 396.569 261.33C397.456 259.283 398.534 257.325 399.791 255.482C400.853 253.871 402.33 252.575 404.067 251.734C406.634 250.57 409.458 250.092 412.264 250.346C413.02 250.433 413.759 250.634 414.454 250.942C414.681 251.09 414.919 251.22 415.165 251.332C415.165 251.332 415.165 251.275 415.005 251.195C414.854 251.058 414.688 250.939 414.512 250.839C413.823 250.469 413.073 250.225 412.299 250.117C409.438 249.764 406.535 250.188 403.895 251.344C402.074 252.198 400.517 253.529 399.389 255.196C398.094 257.051 396.985 259.028 396.076 261.1C394.024 265.4 392.052 270.272 390.16 275.397C389.014 278.676 387.867 281.886 386.904 284.901L386.813 285.176L387.076 285.268L407.151 292.147L413.021 294.096L414.603 294.6C414.784 294.667 414.973 294.71 415.165 294.727Z" fill="#263238"/>
<path d="M365.329 334.2C365.819 334.66 366.345 335.081 366.9 335.461C367.415 335.851 368.046 336.321 368.837 336.802C369.628 337.284 370.488 337.892 371.508 338.43C372.529 338.969 373.641 339.577 374.891 340.173C376.14 340.769 377.47 341.32 378.903 341.881C382.035 343.021 385.257 343.899 388.534 344.507C391.819 345.053 395.144 345.321 398.474 345.309C400.01 345.309 401.477 345.241 402.83 345.069C404.091 344.974 405.346 344.813 406.591 344.587C407.737 344.427 408.758 344.163 409.663 343.968C410.569 343.773 411.326 343.555 411.956 343.36C412.609 343.199 413.246 342.98 413.859 342.707C413.197 342.801 412.541 342.943 411.899 343.131C411.268 343.292 410.512 343.486 409.606 343.635C408.7 343.785 407.691 344.037 406.545 344.163C405.398 344.289 404.149 344.507 402.796 344.576C401.443 344.644 400.01 344.725 398.485 344.759C395.189 344.744 391.899 344.46 388.648 343.911C385.402 343.32 382.208 342.469 379.098 341.365C377.688 340.804 376.324 340.311 375.108 339.726C373.893 339.141 372.747 338.579 371.669 338.064C370.591 337.548 369.766 336.986 368.975 336.516C368.293 336.133 367.631 335.716 366.991 335.266C366.466 334.867 365.91 334.511 365.329 334.2Z" fill="#263238"/>
<path d="M365.192 278.057H374.031V282.241H365.192V278.057Z" fill="white"/>
<path d="M360.181 265.067C360.009 265.067 360.342 271.533 360.904 279.467C361.465 287.401 362.05 293.844 362.222 293.832C362.394 293.821 362.062 287.366 361.5 279.433C360.938 271.499 360.376 265.056 360.181 265.067Z" fill="#263238"/>
<path d="M436.216 294.727H519.726V312.967H436.216V294.727Z" fill="#ED502E"/>
<path d="M430.587 313.162H525.298V386.204H430.587V313.162Z" fill="#ED502E"/>
<path d="M454.319 385.7C454.422 385.7 454.514 369.42 454.514 349.333C454.514 329.247 454.422 312.967 454.319 312.967C454.216 312.967 454.135 329.247 454.135 349.333C454.135 369.42 454.216 385.7 454.319 385.7Z" fill="#263238"/>
<path d="M433.889 369.592H445.881V381.584H433.889V369.592Z" fill="#F5F5F5"/>
<path opacity="0.3" d="M485.709 313.162H496.463V328.754H485.709V313.162Z" fill="white"/>
<path opacity="0.3" d="M485.652 370.624H496.406V386.216H485.652V370.624Z" fill="white"/>
<path opacity="0.3" d="M430.586 312.967H454.318V386.411H430.586V312.967Z" fill="#455A64"/>
<path d="M430.908 313.162C430.908 313.334 452.003 313.46 478.016 313.46C504.03 313.46 525.137 313.334 525.137 313.162C525.137 312.99 504.041 312.864 478.016 312.864C451.991 312.864 430.908 313.002 430.908 313.162Z" fill="#263238"/>
<path opacity="0.3" d="M436.216 294.727H459.593V312.841H436.216V294.727Z" fill="#455A64"/>
<path d="M459.776 312.726C460.07 309.797 460.17 306.852 460.074 303.91C460.17 300.968 460.071 298.022 459.776 295.094C459.473 298.022 459.374 300.968 459.477 303.91C459.374 306.852 459.474 309.798 459.776 312.726Z" fill="#263238"/>
<path d="M483.45 294.727H495.201V300.253H483.45V294.727Z" fill="white"/>
<path d="M478.75 295.082C478.765 294.995 478.765 294.906 478.75 294.818L478.658 294.027C478.578 293.351 478.429 292.342 478.154 291.046C477.414 287.383 476.012 283.887 474.015 280.728C473.33 279.687 472.563 278.701 471.722 277.782C470.868 276.727 469.845 275.82 468.695 275.099C468.044 274.708 467.286 274.531 466.528 274.594C466.129 274.662 465.753 274.829 465.435 275.08C465.117 275.33 464.866 275.656 464.706 276.027C464.206 277.51 464.17 279.11 464.602 280.613C465.448 283.819 467.195 286.715 469.635 288.96C472.239 291.302 475.101 293.341 478.165 295.036L478.589 295.288L478.761 295.392L478.922 295.277C481.754 293.266 484.437 291.051 486.947 288.65C489.301 286.4 491.242 283.753 492.68 280.831C493.045 280.14 493.319 279.404 493.494 278.641C493.68 277.876 493.612 277.071 493.299 276.348C493.144 275.978 492.901 275.651 492.591 275.395C492.282 275.14 491.915 274.963 491.522 274.881C490.761 274.803 489.998 275.007 489.378 275.454C488.814 275.852 488.299 276.314 487.841 276.83C487.383 277.312 486.959 277.805 486.546 278.286C485.761 279.221 485.026 280.196 484.345 281.21C482.263 284.255 480.666 287.604 479.61 291.138C479.332 292.096 479.106 293.068 478.933 294.05L478.819 294.818C478.814 294.906 478.814 294.994 478.819 295.082C478.819 295.082 478.819 295.002 478.899 294.83L479.071 294.073C479.22 293.408 479.461 292.434 479.851 291.207C480.97 287.742 482.588 284.46 484.654 281.462C485.337 280.468 486.072 279.512 486.856 278.596C487.268 278.114 487.692 277.633 488.151 277.174C488.587 276.686 489.08 276.251 489.619 275.878C490.132 275.506 490.764 275.334 491.396 275.397C491.703 275.46 491.99 275.597 492.232 275.797C492.474 275.997 492.663 276.253 492.783 276.543C493.368 277.782 492.783 279.283 492.152 280.602C490.729 283.492 488.813 286.11 486.489 288.341C484.003 290.716 481.347 292.908 478.544 294.899H478.876L478.452 294.646C475.426 292.971 472.6 290.96 470.025 288.65C467.656 286.499 465.953 283.714 465.118 280.625C464.687 279.232 464.687 277.741 465.118 276.348C465.245 276.05 465.445 275.789 465.699 275.589C465.954 275.388 466.255 275.255 466.574 275.202C467.22 275.148 467.866 275.301 468.42 275.638C469.528 276.329 470.518 277.192 471.355 278.194C472.192 279.094 472.958 280.056 473.648 281.072C475.654 284.167 477.101 287.589 477.924 291.184C478.223 292.457 478.406 293.477 478.532 294.13L478.67 294.899L478.75 295.082Z" fill="#263238"/>
<path d="M430.312 345.458C430.312 345.619 451.545 345.756 477.719 345.756C503.893 345.756 525.126 345.619 525.126 345.458C525.126 345.298 503.905 345.16 477.719 345.16C451.533 345.16 430.312 345.286 430.312 345.458Z" fill="#263238"/>
<path d="M478.567 387.385C478.728 387.385 478.865 366.496 478.865 340.735C478.865 314.974 478.728 294.073 478.567 294.073C478.407 294.073 478.269 314.962 478.269 340.735C478.269 366.508 478.395 387.385 478.567 387.385Z" fill="#263238"/>
</svg>
