<svg width="683" height="510" viewBox="0 0 683 510" fill="none" xmlns="http://www.w3.org/2000/svg">
<g opacity="0.56" filter="url(#filter0_d_2_3392)">
<path d="M-92.4121 395.787C-93.8178 394.91 -95.6683 395.338 -96.5453 396.744C-97.4223 398.15 -96.9936 400 -95.5879 400.877L-92.4121 395.787ZM299.232 363.303L301.724 364.973L299.232 363.303ZM679 0L644.943 6.33315L667.456 32.661L679 0ZM-88.1257 405.803C-86.7625 406.744 -84.894 406.402 -83.9523 405.039C-83.0107 403.676 -83.3524 401.807 -84.7157 400.866L-88.1257 405.803ZM-69.8599 411.674C-71.1836 410.677 -73.0645 410.943 -74.061 412.266C-75.0575 413.59 -74.7922 415.471 -73.4685 416.467L-69.8599 411.674ZM-58.9994 427.477C-57.6821 428.482 -55.7996 428.229 -54.7946 426.912C-53.7896 425.595 -54.0427 423.712 -55.36 422.707L-58.9994 427.477ZM-40.8429 433.672C-42.1723 432.683 -44.0516 432.959 -45.0405 434.289C-46.0294 435.618 -45.7534 437.497 -44.424 438.486L-40.8429 433.672ZM-29.5827 449.259C-28.2287 450.214 -26.357 449.891 -25.4021 448.537C-24.4471 447.183 -24.7706 445.311 -26.1246 444.356L-29.5827 449.259ZM-11.1462 454.537C-12.534 453.632 -14.3927 454.023 -15.2979 455.411C-16.203 456.799 -15.8118 458.658 -14.424 459.563L-11.1462 454.537ZM1.19633 469.255C2.62505 470.094 4.4634 469.616 5.30241 468.187C6.1414 466.758 5.66335 464.92 4.23463 464.081L1.19633 469.255ZM20.0583 472.787C18.5835 472.032 16.7758 472.616 16.0209 474.091C15.2659 475.566 15.8495 477.373 17.3244 478.128L20.0583 472.787ZM34.0112 485.971C35.5349 486.621 37.2976 485.914 37.9483 484.39C38.599 482.866 37.8913 481.103 36.3675 480.453L34.0112 485.971ZM53.1789 486.852C51.6071 486.328 49.9082 487.177 49.3843 488.749C48.8605 490.321 49.7101 492.02 51.282 492.544L53.1789 486.852ZM69.0857 497.576C70.7 497.95 72.3112 496.944 72.6845 495.33C73.0578 493.715 72.0518 492.104 70.4376 491.731L69.0857 497.576ZM88.0697 494.85C86.4249 494.65 84.9293 495.821 84.729 497.466C84.5288 499.11 85.6998 500.606 87.3445 500.806L88.0697 494.85ZM105.875 501.997C107.532 502.007 108.883 500.672 108.893 499.015C108.903 497.358 107.568 496.007 105.911 495.997L105.875 501.997ZM123.718 495.042C122.072 495.23 120.89 496.716 121.077 498.363C121.265 500.009 122.752 501.191 124.398 501.003L123.718 495.042ZM142.696 497.799C144.308 497.417 145.306 495.801 144.924 494.188C144.542 492.576 142.925 491.579 141.313 491.961L142.696 497.799ZM158.483 486.837C156.925 487.399 156.117 489.118 156.679 490.677C157.241 492.235 158.96 493.043 160.519 492.481L158.483 486.837ZM177.599 485.284C179.091 484.563 179.716 482.77 178.996 481.278C178.275 479.786 176.482 479.16 174.99 479.881L177.599 485.284ZM190.735 471.338C189.316 472.194 188.859 474.037 189.714 475.456C190.569 476.875 192.413 477.333 193.832 476.477L190.735 471.338ZM209.234 466.299C210.579 465.331 210.885 463.457 209.917 462.112C208.95 460.767 207.075 460.461 205.73 461.429L209.234 466.299ZM219.981 450.367C218.708 451.428 218.536 453.32 219.597 454.592C220.657 455.865 222.549 456.037 223.822 454.977L219.981 450.367ZM237.623 442.719C238.828 441.582 238.884 439.683 237.746 438.478C236.609 437.273 234.711 437.218 233.506 438.355L237.623 442.719ZM246.226 425.681C245.083 426.881 245.129 428.78 246.328 429.923C247.528 431.066 249.427 431.02 250.569 429.82L246.226 425.681ZM262.864 416.287C263.95 415.036 263.816 413.141 262.565 412.055C261.313 410.969 259.419 411.104 258.333 412.355L262.864 416.287ZM269.92 398.423C268.886 399.718 269.098 401.606 270.393 402.639C271.687 403.673 273.575 403.461 274.609 402.166L269.92 398.423ZM285.899 387.469C286.884 386.137 286.604 384.259 285.272 383.273C283.94 382.287 282.062 382.568 281.076 383.9L285.899 387.469ZM291.503 369.323C290.56 370.686 290.9 372.555 292.263 373.497C293.625 374.44 295.494 374.1 296.437 372.738L291.503 369.323ZM306.63 357.766C307.572 356.403 307.231 354.535 305.868 353.592C304.505 352.65 302.637 352.991 301.694 354.354L306.63 357.766ZM311.942 339.966C310.963 341.302 311.252 343.18 312.589 344.159C313.925 345.138 315.802 344.849 316.782 343.513L311.942 339.966ZM327.308 329.523C328.321 328.212 328.078 326.328 326.767 325.315C325.455 324.303 323.571 324.546 322.559 325.857L327.308 329.523ZM333.505 312.011C332.463 313.299 332.663 315.188 333.951 316.23C335.239 317.272 337.128 317.072 338.17 315.784L333.505 312.011ZM349.332 302.281C350.401 301.015 350.241 299.122 348.975 298.053C347.709 296.985 345.816 297.145 344.747 298.411L349.332 302.281ZM356.255 285.042C355.162 286.288 355.286 288.183 356.532 289.276C357.777 290.369 359.673 290.245 360.765 288.999L356.255 285.042ZM372.443 275.926C373.557 274.7 373.467 272.803 372.241 271.688C371.015 270.574 369.117 270.664 368.003 271.89L372.443 275.926ZM379.968 258.942C378.834 260.149 378.894 262.048 380.102 263.182C381.309 264.316 383.208 264.256 384.342 263.048L379.968 258.942ZM396.443 250.354C397.595 249.163 397.563 247.264 396.372 246.112C395.181 244.96 393.282 244.992 392.13 246.183L396.443 250.354ZM404.471 233.602C403.303 234.776 403.309 236.676 404.483 237.844C405.658 239.012 407.558 239.007 408.726 237.832L404.471 233.602ZM421.176 225.471C422.359 224.311 422.378 222.411 421.218 221.228C420.058 220.045 418.159 220.027 416.976 221.187L421.176 225.471ZM429.628 208.927C428.432 210.073 428.391 211.972 429.537 213.169C430.683 214.365 432.582 214.406 433.778 213.26L429.628 208.927ZM446.519 201.19C447.728 200.057 447.79 198.158 446.657 196.949C445.523 195.741 443.625 195.679 442.416 196.812L446.519 201.19ZM455.327 184.832C454.107 185.953 454.027 187.851 455.148 189.071C456.269 190.291 458.167 190.372 459.387 189.251L455.327 184.832ZM472.369 177.433C473.599 176.323 473.697 174.426 472.587 173.196C471.478 171.966 469.581 171.868 468.35 172.978L472.369 177.433ZM481.475 161.239C480.236 162.339 480.122 164.235 481.221 165.475C482.321 166.714 484.217 166.828 485.456 165.728L481.475 161.239ZM498.639 154.127C499.887 153.037 500.015 151.142 498.925 149.894C497.835 148.646 495.94 148.518 494.692 149.608L498.639 154.127ZM507.991 138.074C506.736 139.156 506.595 141.05 507.676 142.305C508.757 143.561 510.652 143.702 511.907 142.621L507.991 138.074ZM525.252 131.2C526.514 130.127 526.667 128.233 525.593 126.971C524.52 125.709 522.627 125.556 521.365 126.63L525.252 131.2ZM534.802 115.265C533.534 116.331 533.371 118.224 534.438 119.492C535.504 120.76 537.397 120.923 538.665 119.856L534.802 115.265ZM552.137 108.58C553.41 107.519 553.582 105.628 552.521 104.355C551.461 103.082 549.569 102.91 548.296 103.97L552.137 108.58ZM561.836 92.7367C560.559 93.7922 560.379 95.6832 561.434 96.9603C562.49 98.2375 564.381 98.4172 565.658 97.3617L561.836 92.7367ZM579.219 86.1914C580.499 85.1399 580.685 83.2495 579.633 81.9691C578.582 80.6887 576.691 80.5031 575.411 81.5546L579.219 86.1914ZM589.009 70.4139C587.727 71.4626 587.537 73.3526 588.586 74.6353C589.634 75.9181 591.524 76.1077 592.807 75.059L589.009 70.4139ZM606.408 63.9539C607.692 62.9066 607.884 61.0169 606.837 59.7329C605.79 58.449 603.9 58.2572 602.616 59.3045L606.408 63.9539ZM616.252 48.1836C614.968 49.231 614.776 51.1208 615.824 52.4046C616.871 53.6884 618.761 53.8801 620.044 52.8327L616.252 48.1836ZM633.684 41.6906C634.966 40.6412 635.155 38.7511 634.106 37.469C633.056 36.1868 631.166 35.998 629.884 37.0474L633.684 41.6906ZM643.47 25.893C642.192 26.9468 642.009 28.8375 643.063 30.1161C644.117 31.3947 646.008 31.5769 647.286 30.5232L643.47 25.893ZM660.809 19.3167C662.082 18.2555 662.253 16.3638 661.192 15.0914C660.13 13.819 658.239 13.6478 656.966 14.709L660.809 19.3167ZM670.421 3.38847C669.159 4.46144 669.005 6.35471 670.078 7.61721C671.151 8.87972 673.044 9.03337 674.307 7.96041L670.421 3.38847ZM-95.5879 400.877C-93.2044 402.364 -90.717 404.013 -88.1257 405.803L-84.7157 400.866C-87.3649 399.036 -89.932 397.334 -92.4121 395.787L-95.5879 400.877ZM-73.4685 416.467C-68.8655 419.932 -64.0473 423.626 -58.9994 427.477L-55.36 422.707C-60.392 418.868 -65.2365 415.154 -69.8599 411.674L-73.4685 416.467ZM-44.424 438.486C-39.6356 442.048 -34.6858 445.66 -29.5827 449.259L-26.1246 444.356C-31.1765 440.793 -36.0842 437.212 -40.8429 433.672L-44.424 438.486ZM-14.424 459.563C-9.34724 462.874 -4.1385 466.122 1.19633 469.255L4.23463 464.081C-1.00957 461.001 -6.13814 457.804 -11.1462 454.537L-14.424 459.563ZM17.3244 478.128C22.7714 480.916 28.3355 483.547 34.0112 485.971L36.3675 480.453C30.8309 478.088 25.393 475.518 20.0583 472.787L17.3244 478.128ZM51.282 492.544C57.1127 494.487 63.049 496.18 69.0857 497.576L70.4376 491.731C64.5973 490.38 58.8429 488.739 53.1789 486.852L51.282 492.544ZM87.3445 500.806C93.4332 501.548 99.6117 501.959 105.875 501.997L105.911 495.997C99.8875 495.961 93.9391 495.565 88.0697 494.85L87.3445 500.806ZM124.398 501.003C130.432 500.315 136.533 499.259 142.696 497.799L141.313 491.961C135.383 493.365 129.517 494.38 123.718 495.042L124.398 501.003ZM160.519 492.481C166.169 490.444 171.863 488.053 177.599 485.284L174.99 479.881C169.437 482.562 163.934 484.872 158.483 486.837L160.519 492.481ZM193.832 476.477C198.938 473.4 204.073 470.013 209.234 466.299L205.73 461.429C200.696 465.051 195.697 468.348 190.735 471.338L193.832 476.477ZM223.822 454.977C228.403 451.16 233.004 447.077 237.623 442.719L233.506 438.355C228.972 442.632 224.464 446.632 219.981 450.367L223.822 454.977ZM250.569 429.82C254.654 425.534 258.753 421.025 262.864 416.287L258.333 412.355C254.28 417.025 250.244 421.464 246.226 425.681L250.569 429.82ZM274.609 402.166C278.362 397.464 282.126 392.567 285.899 387.469L281.076 383.9C277.345 388.941 273.626 393.78 269.92 398.423L274.609 402.166ZM296.437 372.738C298.197 370.194 299.96 367.606 301.724 364.973L296.739 361.633C294.991 364.242 293.246 366.805 291.503 369.323L296.437 372.738ZM301.724 364.973C303.335 362.568 304.971 360.165 306.63 357.766L301.694 354.354C300.019 356.777 298.367 359.203 296.739 361.633L301.724 364.973ZM316.782 343.513C320.209 338.836 323.72 334.173 327.308 329.523L322.559 325.857C318.941 330.544 315.4 335.248 311.942 339.966L316.782 343.513ZM338.17 315.784C341.824 311.267 345.547 306.766 349.332 302.281L344.747 298.411C340.936 302.926 337.186 307.46 333.505 312.011L338.17 315.784ZM360.765 288.999C364.604 284.624 368.499 280.266 372.443 275.926L368.003 271.89C364.036 276.255 360.118 280.639 356.255 285.042L360.765 288.999ZM384.342 263.048C388.334 258.797 392.369 254.565 396.443 250.354L392.13 246.183C388.037 250.414 383.981 254.668 379.968 258.942L384.342 263.048ZM408.726 237.832C412.845 233.69 416.997 229.569 421.176 225.471L416.976 221.187C412.779 225.302 408.609 229.44 404.471 233.602L408.726 237.832ZM433.778 213.26C438.005 209.212 442.253 205.188 446.519 201.19L442.416 196.812C438.135 200.825 433.871 204.864 429.628 208.927L433.778 213.26ZM459.387 189.251C463.704 185.284 468.033 181.345 472.369 177.433L468.35 172.978C464.001 176.901 459.658 180.853 455.327 184.832L459.387 189.251ZM485.456 165.728C489.85 161.831 494.246 157.963 498.639 154.127L494.692 149.608C490.289 153.454 485.881 157.332 481.475 161.239L485.456 165.728ZM511.907 142.621C516.366 138.78 520.816 134.973 525.252 131.2L521.365 126.63C516.92 130.41 512.461 134.225 507.991 138.074L511.907 142.621ZM538.665 119.856C543.179 116.059 547.672 112.3 552.137 108.58L548.296 103.97C543.825 107.695 539.325 111.461 534.802 115.265L538.665 119.856ZM565.658 97.3617C570.217 93.5939 574.74 89.87 579.219 86.1914L575.411 81.5546C570.928 85.2365 566.4 88.9644 561.836 92.7367L565.658 97.3617ZM592.807 75.059C597.398 71.3052 601.935 67.603 606.408 63.9539L602.616 59.3045C598.141 62.9542 593.603 66.658 589.009 70.4139L592.807 75.059ZM620.044 52.8327C624.675 49.0553 629.225 45.3404 633.684 41.6906L629.884 37.0474C625.428 40.6943 620.881 44.407 616.252 48.1836L620.044 52.8327ZM647.286 30.5232C651.916 26.7077 656.428 22.9712 660.809 19.3167L656.966 14.709C652.595 18.3545 648.093 22.0834 643.47 25.893L647.286 30.5232Z" fill="white"/>
</g>
<defs>
<filter id="filter0_d_2_3392" x="-101" y="0" width="784" height="509.997" filterUnits="userSpaceOnUse" color-interpolation-filters="sRGB">
<feFlood flood-opacity="0" result="BackgroundImageFix"/>
<feColorMatrix in="SourceAlpha" type="matrix" values="0 0 0 0 0 0 0 0 0 0 0 0 0 0 0 0 0 0 127 0" result="hardAlpha"/>
<feOffset dy="4"/>
<feGaussianBlur stdDeviation="2"/>
<feComposite in2="hardAlpha" operator="out"/>
<feColorMatrix type="matrix" values="0 0 0 0 0 0 0 0 0 0 0 0 0 0 0 0 0 0 0.25 0"/>
<feBlend mode="normal" in2="BackgroundImageFix" result="effect1_dropShadow_2_3392"/>
<feBlend mode="normal" in="SourceGraphic" in2="effect1_dropShadow_2_3392" result="shape"/>
</filter>
</defs>
</svg>
