<svg width="1155" height="516" viewBox="0 0 1155 516" fill="none" xmlns="http://www.w3.org/2000/svg">
<g opacity="0.56" filter="url(#filter0_d_2_992)">
<path d="M-225.515 397.752C-227.861 396.932 -230.427 398.169 -231.248 400.515C-232.068 402.861 -230.831 405.428 -228.485 406.248L-225.515 397.752ZM474 367L476.887 370.451L474 367ZM1151 4L1099.19 0.0597813L1121.68 46.9003L1151 4ZM-220.275 409.227C-217.947 410.099 -215.354 408.92 -214.482 406.593C-213.609 404.266 -214.789 401.672 -217.116 400.8L-220.275 409.227ZM-200.251 407.423C-202.552 406.486 -205.178 407.592 -206.116 409.893C-207.053 412.195 -205.947 414.821 -203.645 415.758L-200.251 407.423ZM-187.236 422.588C-184.947 423.556 -182.307 422.486 -181.338 420.197C-180.37 417.908 -181.441 415.267 -183.73 414.299L-187.236 422.588ZM-167.274 421.313C-169.559 420.335 -172.204 421.395 -173.182 423.679C-174.16 425.964 -173.1 428.609 -170.816 429.587L-167.274 421.313ZM-154.358 436.619C-152.071 437.592 -149.428 436.527 -148.455 434.24C-147.482 431.953 -148.547 429.311 -150.834 428.338L-154.358 436.619ZM-134.375 435.281C-136.668 434.323 -139.303 435.407 -140.261 437.7C-141.218 439.994 -140.135 442.629 -137.841 443.586L-134.375 435.281ZM-121.244 450.415C-118.941 451.348 -116.317 450.237 -115.384 447.933C-114.451 445.63 -115.563 443.006 -117.866 442.073L-121.244 450.415ZM-101.285 448.66C-103.601 447.759 -106.21 448.906 -107.111 451.222C-108.012 453.538 -106.865 456.146 -104.549 457.048L-101.285 448.66ZM-87.7389 463.434C-85.4083 464.297 -82.8193 463.107 -81.9562 460.777C-81.0931 458.446 -82.2828 455.857 -84.6134 454.994L-87.7389 463.434ZM-67.8366 461.033C-70.183 460.213 -72.7493 461.451 -73.5686 463.797C-74.3879 466.144 -73.15 468.71 -70.8037 469.529L-67.8366 461.033ZM-53.7723 475.282C-51.4094 476.052 -48.8694 474.761 -48.0991 472.398C-47.3288 470.035 -48.6198 467.495 -50.9827 466.725L-53.7723 475.282ZM-34.0322 472.042C-36.412 471.325 -38.922 472.674 -39.6384 475.053C-40.3548 477.433 -39.0063 479.943 -36.6265 480.66L-34.0322 472.042ZM-19.3388 485.635C-16.9421 486.293 -14.4661 484.883 -13.8084 482.487C-13.1508 480.09 -14.5606 477.614 -16.9573 476.956L-19.3388 485.635ZM0.241791 481.435C-2.1714 480.841 -4.60942 482.316 -5.20366 484.729C-5.7979 487.142 -4.32335 489.58 -1.91016 490.174L0.241791 481.435ZM15.6556 494.242C18.0845 494.768 20.4803 493.226 21.0066 490.797C21.533 488.368 19.9907 485.973 17.5618 485.446L15.6556 494.242ZM34.998 488.958C32.5546 488.504 30.2056 490.116 29.7513 492.56C29.2971 495.003 30.9097 497.352 33.3531 497.806L34.998 488.958ZM51.1043 500.825C53.5606 501.203 55.8586 499.518 56.2368 497.062C56.6152 494.606 54.9306 492.308 52.4743 491.929L51.1043 500.825ZM70.0345 494.346C67.5672 494.047 65.325 495.805 65.0263 498.272C64.7277 500.74 66.4858 502.982 68.953 503.28L70.0345 494.346ZM86.8983 505.148C89.3742 505.364 91.556 503.531 91.7715 501.055C91.9869 498.58 90.1544 496.398 87.6785 496.182L86.8983 505.148ZM105.394 497.415C102.912 497.286 100.796 499.193 100.667 501.675C100.538 504.157 102.445 506.274 104.927 506.403L105.394 497.415ZM122.963 507.019C125.448 507.059 127.495 505.077 127.535 502.592C127.575 500.107 125.594 498.06 123.109 498.02L122.963 507.019ZM140.803 497.984C138.319 498.035 136.345 500.09 136.396 502.575C136.446 505.06 138.502 507.033 140.986 506.983L140.803 497.984ZM159.032 506.28C161.513 506.136 163.408 504.009 163.265 501.528C163.122 499.047 160.995 497.151 158.514 497.294L159.032 506.28ZM176.229 495.936C173.755 496.173 171.942 498.371 172.179 500.845C172.416 503.319 174.613 505.132 177.087 504.895L176.229 495.936ZM194.982 502.838C197.445 502.508 199.174 500.243 198.843 497.78C198.513 495.317 196.248 493.588 193.785 493.918L194.982 502.838ZM211.276 491.231C208.827 491.655 207.186 493.984 207.61 496.433C208.034 498.881 210.363 500.523 212.812 500.098L211.276 491.231ZM230.593 496.667C233.023 496.15 234.575 493.76 234.057 491.329C233.54 488.898 231.15 487.347 228.719 487.864L230.593 496.667ZM245.948 483.856C243.538 484.465 242.078 486.911 242.687 489.321C243.296 491.731 245.742 493.191 248.152 492.582L245.948 483.856ZM265.54 487.842C267.925 487.144 269.293 484.645 268.595 482.26C267.897 479.874 265.397 478.507 263.012 479.205L265.54 487.842ZM279.998 473.89C277.64 474.676 276.366 477.224 277.151 479.582C277.937 481.94 280.485 483.214 282.843 482.429L279.998 473.89ZM299.796 476.439C302.125 475.569 303.307 472.977 302.437 470.649C301.568 468.321 298.975 467.138 296.647 468.008L299.796 476.439ZM313.136 461.515C310.84 462.466 309.749 465.098 310.7 467.394C311.651 469.69 314.283 470.781 316.58 469.83L313.136 461.515ZM333.196 462.61C335.458 461.581 336.457 458.913 335.428 456.651C334.399 454.388 331.731 453.389 329.468 454.418L333.196 462.61ZM345.398 446.85C343.171 447.953 342.26 450.652 343.363 452.879C344.466 455.106 347.166 456.017 349.393 454.914L345.398 446.85ZM365.513 446.6C367.703 445.425 368.526 442.698 367.352 440.508C366.177 438.317 363.45 437.494 361.259 438.668L365.513 446.6ZM376.681 430.089C374.528 431.33 373.789 434.082 375.03 436.235C376.271 438.388 379.023 439.127 381.176 437.886L376.681 430.089ZM396.691 428.627C398.806 427.322 399.462 424.549 398.157 422.434C396.852 420.319 394.079 419.663 391.964 420.968L396.691 428.627ZM406.916 411.442C404.839 412.807 404.262 415.597 405.627 417.674C406.992 419.75 409.782 420.327 411.859 418.962L406.916 411.442ZM426.772 408.862C428.81 407.44 429.31 404.635 427.889 402.597C426.467 400.558 423.662 400.058 421.623 401.48L426.772 408.862ZM436.068 391.118C434.068 392.593 433.642 395.41 435.117 397.41C436.592 399.411 439.409 399.837 441.409 398.362L436.068 391.118ZM455.745 387.508C457.707 385.983 458.062 383.156 456.537 381.193C455.012 379.231 452.185 378.876 450.223 380.401L455.745 387.508ZM464.135 369.316C462.21 370.888 461.924 373.723 463.496 375.648C465.068 377.573 467.903 377.859 469.828 376.287L464.135 369.316ZM483.852 364.699C485.778 363.128 486.066 360.294 484.495 358.368C482.924 356.442 480.089 356.154 478.164 357.725L483.852 364.699ZM492.604 346.226C490.643 347.752 490.29 350.579 491.816 352.541C493.342 354.503 496.169 354.856 498.131 353.33L492.604 346.226ZM512.677 342.257C514.669 340.771 515.081 337.952 513.595 335.959C512.11 333.967 509.291 333.555 507.298 335.041L512.677 342.257ZM522.164 324.176C520.144 325.624 519.681 328.435 521.129 330.455C522.578 332.475 525.389 332.938 527.409 331.49L522.164 324.176ZM542.314 320.992C544.358 319.578 544.868 316.774 543.454 314.731C542.039 312.687 539.236 312.177 537.193 313.591L542.314 320.992ZM552.405 303.236C550.34 304.619 549.787 307.414 551.171 309.479C552.554 311.544 555.349 312.096 557.414 310.713L552.405 303.236ZM572.687 300.637C574.771 299.282 575.362 296.495 574.008 294.411C572.653 292.327 569.866 291.736 567.782 293.091L572.687 300.637ZM583.292 283.151C581.191 284.479 580.565 287.258 581.893 289.359C583.221 291.46 586 292.086 588.101 290.758L583.292 283.151ZM603.586 281.098C605.702 279.794 606.36 277.022 605.057 274.906C603.753 272.79 600.981 272.131 598.865 273.435L603.586 281.098ZM614.57 263.878C612.44 265.159 611.751 267.924 613.032 270.054C614.313 272.184 617.078 272.872 619.207 271.591L614.57 263.878ZM634.951 262.233C637.093 260.973 637.809 258.215 636.549 256.073C635.29 253.93 632.532 253.214 630.39 254.474L634.951 262.233ZM646.279 245.232C644.125 246.472 643.384 249.223 644.623 251.377C645.863 253.531 648.614 254.272 650.768 253.032L646.279 245.232ZM666.654 243.979C668.818 242.758 669.583 240.013 668.361 237.849C667.14 235.684 664.395 234.92 662.231 236.141L666.654 243.979ZM678.275 227.172C676.101 228.376 675.315 231.115 676.519 233.289C677.723 235.463 680.462 236.249 682.636 235.044L678.275 227.172ZM698.698 226.225C700.881 225.037 701.687 222.304 700.499 220.121C699.311 217.938 696.578 217.132 694.395 218.32L698.698 226.225ZM710.544 209.602C708.353 210.775 707.528 213.502 708.701 215.693C709.875 217.884 712.602 218.709 714.793 217.536L710.544 209.602ZM730.963 208.944C733.161 207.785 734.004 205.063 732.845 202.864C731.685 200.666 728.964 199.824 726.765 200.983L730.963 208.944ZM743.043 192.462C740.838 193.608 739.979 196.325 741.125 198.53C742.271 200.736 744.988 201.594 747.193 200.448L743.043 192.462ZM763.464 192.051C765.676 190.917 766.549 188.205 765.416 185.993C764.282 183.782 761.57 182.908 759.358 184.042L763.464 192.051ZM775.722 175.707C773.505 176.829 772.617 179.537 773.739 181.754C774.861 183.972 777.569 184.86 779.786 183.737L775.722 175.707ZM796.15 175.506C798.373 174.394 799.274 171.691 798.162 169.468C797.051 167.246 794.348 166.345 792.125 167.456L796.15 175.506ZM808.562 159.284C806.334 160.385 805.421 163.084 806.523 165.312C807.624 167.54 810.323 168.453 812.551 167.352L808.562 159.284ZM828.998 159.263C831.23 158.171 832.155 155.476 831.063 153.244C829.97 151.011 827.275 150.087 825.043 151.179L828.998 159.263ZM841.547 143.145C839.31 144.229 838.375 146.92 839.459 149.157C840.542 151.394 843.234 152.328 845.47 151.245L841.547 143.145ZM861.961 143.293C864.201 142.218 865.146 139.53 864.07 137.289C862.995 135.049 860.307 134.104 858.066 135.18L861.961 143.293ZM874.643 127.256C872.399 128.324 871.446 131.009 872.514 133.253C873.582 135.497 876.267 136.451 878.511 135.383L874.643 127.256ZM895.074 127.53C897.321 126.468 898.283 123.786 897.221 121.539C896.16 119.292 893.478 118.33 891.23 119.392L895.074 127.53ZM907.814 111.586C905.564 112.642 904.596 115.321 905.651 117.571C906.707 119.821 909.386 120.79 911.636 119.734L907.814 111.586ZM928.248 111.967C930.501 110.917 931.476 108.24 930.426 105.988C929.376 103.735 926.698 102.76 924.446 103.81L928.248 111.967ZM941.103 96.0675C938.848 97.1127 937.868 99.7879 938.913 102.043C939.958 104.298 942.634 105.278 944.888 104.233L941.103 96.0675ZM961.52 96.5412C963.777 95.5 964.762 92.8265 963.721 90.5698C962.68 88.3132 960.006 87.3279 957.75 88.3692L961.52 96.5412ZM974.375 80.7129C972.117 81.7509 971.128 84.4229 972.166 86.6811C973.204 88.9392 975.876 89.9284 978.134 88.8904L974.375 80.7129ZM994.828 81.2289C997.087 80.1935 998.079 77.5225 997.044 75.2632C996.009 73.0039 993.338 72.0118 991.078 73.0473L994.828 81.2289ZM1007.78 65.4019C1005.52 66.4357 1004.52 69.1059 1005.56 71.366C1006.59 73.626 1009.26 74.6201 1011.52 73.5862L1007.78 65.4019ZM1028.2 65.9624C1030.46 64.9292 1031.45 62.2593 1030.42 59.9989C1029.38 57.7386 1026.71 56.7437 1024.45 57.7769L1028.2 65.9624ZM1041.11 50.1656C1038.84 51.1991 1037.85 53.8692 1038.88 56.1294C1039.92 58.3896 1042.59 59.384 1044.85 58.3504L1041.11 50.1656ZM1061.5 50.7315C1063.76 49.6964 1064.75 47.0256 1063.71 44.7662C1062.68 42.5067 1060.01 41.5142 1057.75 42.5493L1061.5 50.7315ZM1074.45 34.8857C1072.19 35.9239 1071.2 38.596 1072.24 40.8541C1073.28 43.1121 1075.95 44.1011 1078.21 43.0629L1074.45 34.8857ZM1094.9 35.371C1097.15 34.3281 1098.14 31.654 1097.09 29.3981C1096.05 27.1422 1093.38 26.1588 1091.12 27.2017L1094.9 35.371ZM1107.76 19.4823C1105.5 20.532 1104.53 23.2091 1105.58 25.4618C1106.63 27.7146 1109.3 28.6898 1111.56 27.6401L1107.76 19.4823ZM1128.19 19.8505C1130.44 18.7913 1131.4 16.1101 1130.34 13.8618C1129.28 11.6135 1126.6 10.6495 1124.35 11.7086L1128.19 19.8505ZM1140.9 3.85742C1138.66 4.9294 1137.71 7.61608 1138.78 9.85828C1139.85 12.1005 1142.54 13.0491 1144.78 11.9772L1140.9 3.85742ZM-228.485 406.248C-225.818 407.18 -223.081 408.175 -220.275 409.227L-217.116 400.8C-219.977 399.727 -222.777 398.71 -225.515 397.752L-228.485 406.248ZM-203.645 415.758C-198.368 417.908 -192.897 420.193 -187.236 422.588L-183.73 414.299C-189.413 411.895 -194.923 409.593 -200.251 407.423L-203.645 415.758ZM-170.816 429.587C-165.473 431.874 -159.984 434.225 -154.358 436.619L-150.834 428.338C-156.449 425.949 -161.928 423.601 -167.274 421.313L-170.816 429.587ZM-137.841 443.586C-132.423 445.848 -126.889 448.129 -121.244 450.415L-117.866 442.073C-123.477 439.801 -128.98 437.532 -134.375 435.281L-137.841 443.586ZM-104.549 457.048C-99.0407 459.19 -93.4366 461.324 -87.7389 463.434L-84.6134 454.994C-90.2609 452.902 -95.819 450.787 -101.285 448.66L-104.549 457.048ZM-70.8037 469.529C-65.2085 471.483 -59.5306 473.404 -53.7723 475.282L-50.9827 466.725C-56.6781 464.868 -62.2968 462.967 -67.8366 461.033L-70.8037 469.529ZM-36.6265 480.66C-30.9359 482.373 -25.1727 484.035 -19.3388 485.635L-16.9573 476.956C-22.7168 475.376 -28.4091 473.734 -34.0322 472.042L-36.6265 480.66ZM-1.91016 490.174C3.88091 491.6 9.73677 492.959 15.6556 494.242L17.5618 485.446C11.7281 484.182 5.95419 482.842 0.241791 481.435L-1.91016 490.174ZM33.3531 497.806C39.213 498.896 45.1306 499.905 51.1043 500.825L52.4743 491.929C46.5952 491.024 40.7693 490.031 34.998 488.958L33.3531 497.806ZM68.953 503.28C74.8835 503.998 80.8658 504.624 86.8983 505.148L87.6785 496.182C81.749 495.666 75.8672 495.052 70.0345 494.346L68.953 503.28ZM104.927 506.403C110.893 506.713 116.906 506.921 122.963 507.019L123.109 498.02C117.161 497.924 111.256 497.72 105.394 497.415L104.927 506.403ZM140.986 506.983C146.961 506.861 152.977 506.629 159.032 506.28L158.514 497.294C152.572 497.637 146.668 497.865 140.803 497.984L140.986 506.983ZM177.087 504.895C183.017 504.327 188.982 503.644 194.982 502.838L193.785 493.918C187.899 494.708 182.047 495.379 176.229 495.936L177.087 504.895ZM212.812 500.098C218.708 499.077 224.635 497.935 230.593 496.667L228.719 487.864C222.874 489.108 217.06 490.229 211.276 491.231L212.812 500.098ZM248.152 492.582C253.922 491.124 259.718 489.546 265.54 487.842L263.012 479.205C257.298 480.877 251.609 482.426 245.948 483.856L248.152 492.582ZM282.843 482.429C288.472 480.553 294.123 478.558 299.796 476.439L296.647 468.008C291.075 470.089 285.525 472.049 279.998 473.89L282.843 482.429ZM316.58 469.83C322.099 467.544 327.638 465.139 333.196 462.61L329.468 454.418C324.004 456.904 318.56 459.268 313.136 461.515L316.58 469.83ZM349.393 454.914C354.75 452.26 360.124 449.49 365.513 446.6L361.259 438.668C355.955 441.513 350.668 444.239 345.398 446.85L349.393 454.914ZM381.176 437.886C386.334 434.912 391.506 431.826 396.691 428.627L391.964 420.968C386.855 424.12 381.761 427.16 376.681 430.089L381.176 437.886ZM411.859 418.962C416.819 415.702 421.79 412.336 426.772 408.862L421.623 401.48C416.708 404.908 411.806 408.227 406.916 411.442L411.859 418.962ZM441.409 398.362C446.179 394.845 450.957 391.228 455.745 387.508L450.223 380.401C445.494 384.075 440.776 387.647 436.068 391.118L441.409 398.362ZM469.828 376.287C472.179 374.367 474.532 372.422 476.887 370.451L471.113 363.549C468.784 365.496 466.459 367.419 464.135 369.316L469.828 376.287ZM476.887 370.451C479.181 368.532 481.503 366.615 483.852 364.699L478.164 357.725C475.786 359.664 473.436 361.605 471.113 363.549L476.887 370.451ZM498.131 353.33C502.885 349.631 507.735 345.94 512.677 342.257L507.298 335.041C502.309 338.759 497.41 342.488 492.604 346.226L498.131 353.33ZM527.409 331.49C532.301 327.982 537.271 324.483 542.314 320.992L537.193 313.591C532.109 317.109 527.098 320.638 522.164 324.176L527.409 331.49ZM557.414 310.713C562.442 307.345 567.534 303.986 572.687 300.637L567.782 293.091C562.596 296.462 557.469 299.844 552.405 303.236L557.414 310.713ZM588.101 290.758C593.211 287.528 598.374 284.308 603.586 281.098L598.865 273.435C593.625 276.662 588.433 279.901 583.292 283.151L588.101 290.758ZM619.207 271.591C624.413 268.461 629.662 265.342 634.951 262.233L630.39 254.474C625.076 257.597 619.802 260.732 614.57 263.878L619.207 271.591ZM650.768 253.032C656.03 250.004 661.327 246.986 666.654 243.979L662.231 236.141C656.882 239.16 651.563 242.19 646.279 245.232L650.768 253.032ZM682.636 235.044C687.964 232.093 693.319 229.153 698.698 226.225L694.395 218.32C688.998 221.258 683.623 224.209 678.275 227.172L682.636 235.044ZM714.793 217.536C720.164 214.659 725.555 211.795 730.963 208.944L726.765 200.983C721.341 203.843 715.933 206.716 710.544 209.602L714.793 217.536ZM747.193 200.448C752.605 197.636 758.029 194.837 763.464 192.051L759.358 184.042C753.909 186.835 748.47 189.642 743.043 192.462L747.193 200.448ZM779.786 183.737C785.235 180.979 790.691 178.236 796.15 175.506L792.125 167.456C786.654 170.192 781.185 172.943 775.722 175.707L779.786 183.737ZM812.551 167.352C818.034 164.641 823.518 161.944 828.998 159.263L825.043 151.179C819.552 153.865 814.057 156.567 808.562 159.284L812.551 167.352ZM845.47 151.245C850.975 148.578 856.473 145.928 861.961 143.293L858.066 135.18C852.569 137.819 847.061 140.474 841.547 143.145L845.47 151.245ZM878.511 135.383C884.047 132.748 889.569 130.13 895.074 127.53L891.23 119.392C885.718 121.996 880.188 124.617 874.643 127.256L878.511 135.383ZM911.636 119.734C917.196 117.127 922.735 114.537 928.248 111.967L924.446 103.81C918.926 106.383 913.381 108.975 907.814 111.586L911.636 119.734ZM944.888 104.233C950.463 101.648 956.009 99.0842 961.52 96.5412L957.75 88.3692C952.234 90.9142 946.683 93.4805 941.103 96.0675L944.888 104.233ZM978.134 88.8904C983.74 86.3136 989.306 83.7596 994.828 81.2289L991.078 73.0473C985.554 75.5791 979.985 78.1345 974.375 80.7129L978.134 88.8904ZM1011.52 73.5862C1017.13 71.0191 1022.69 68.4777 1028.2 65.9624L1024.45 57.7769C1018.95 60.2923 1013.39 62.8342 1007.78 65.4019L1011.52 73.5862ZM1044.85 58.3504C1050.47 55.7814 1056.02 53.2415 1061.5 50.7315L1057.75 42.5493C1052.27 45.0581 1046.72 47.597 1041.11 50.1656L1044.85 58.3504ZM1078.21 43.0629C1083.86 40.4643 1089.43 37.9 1094.9 35.371L1091.12 27.2017C1085.66 29.7276 1080.1 32.2892 1074.45 34.8857L1078.21 43.0629ZM1111.56 27.6401C1117.22 25.0017 1122.77 22.4048 1128.19 19.8505L1124.35 11.7086C1118.94 14.2569 1113.41 16.8484 1107.76 19.4823L1111.56 27.6401Z" fill="white"/>
</g>
<defs>
<filter id="filter0_d_2_992" x="-235.501" y="0.0598145" width="1390.5" height="514.96" filterUnits="userSpaceOnUse" color-interpolation-filters="sRGB">
<feFlood flood-opacity="0" result="BackgroundImageFix"/>
<feColorMatrix in="SourceAlpha" type="matrix" values="0 0 0 0 0 0 0 0 0 0 0 0 0 0 0 0 0 0 127 0" result="hardAlpha"/>
<feOffset dy="4"/>
<feGaussianBlur stdDeviation="2"/>
<feComposite in2="hardAlpha" operator="out"/>
<feColorMatrix type="matrix" values="0 0 0 0 0 0 0 0 0 0 0 0 0 0 0 0 0 0 0.25 0"/>
<feBlend mode="normal" in2="BackgroundImageFix" result="effect1_dropShadow_2_992"/>
<feBlend mode="normal" in="SourceGraphic" in2="effect1_dropShadow_2_992" result="shape"/>
</filter>
</defs>
</svg>
